<?xml version="1.0" encoding="UTF-8"?>
<!DOCTYPE svg PUBLIC "-//W3C//DTD SVG 1.1//EN" "http://www.w3.org/Graphics/SVG/1.1/DTD/svg11.dtd">
<!-- Creator: CorelDRAW Home & Student X8 -->
<svg xmlns="http://www.w3.org/2000/svg" xml:space="preserve" width="2480px" height="3508px" version="1.1" style="shape-rendering:geometricPrecision; text-rendering:geometricPrecision; image-rendering:optimizeQuality; fill-rule:evenodd; clip-rule:evenodd"
viewBox="0 0 2480 3507"
 xmlns:xlink="http://www.w3.org/1999/xlink">
 <defs>
  <style type="text/css">
   <![CDATA[
    .str1 {stroke:#7C008C;stroke-width:23.619}
    .str7 {stroke:#7C008C;stroke-width:23.619}
    .str5 {stroke:#7C008C;stroke-width:47.2381}
    .str0 {stroke:black;stroke-width:2.3619}
    .str6 {stroke:#7C008C;stroke-width:11.8095;stroke-linecap:round;stroke-linejoin:round}
    .str4 {stroke:#7C008C;stroke-width:82.6667;stroke-linecap:round;stroke-linejoin:round}
    .str3 {stroke:#7C008C;stroke-width:94.4762;stroke-linecap:round;stroke-linejoin:round}
    .str2 {stroke:#7C008C;stroke-width:118.095;stroke-linecap:round;stroke-linejoin:round}
    .fil3 {fill:none;fill-rule:nonzero}
    .fil7 {fill:black}
    .fil0 {fill:#7C008C}
    .fil4 {fill:#9900CC}
    .fil5 {fill:yellow}
    .fil1 {fill:white}
    .fil6 {fill:white}
    .fil8 {fill:black;fill-rule:nonzero}
    .fil2 {fill:white;fill-rule:nonzero}
   ]]>
  </style>
 </defs>
 <g id="Layer_x0020_1">
  <metadata id="CorelCorpID_0Corel-Layer"/>
  <rect class="fil0 str0" x="-2361" y="580" width="2212" height="2212"/>
  <g id="_575651816">
   <path class="fil1" d="M-1220 1742c-12,0 -23,0 -35,0 -12,0 -24,0 -35,0 -100,-3 -179,-18 -235,-39 -27,-9 -50,-20 -68,-33l0 101 0 7 0 7 0 18c39,42 168,81 338,81 170,0 299,-39 337,-81l0 -18 0 -7 0 -7 0 -101c-17,13 -40,24 -67,34 -57,20 -136,35 -235,38z"/>
   <path class="fil1" d="M-1593 1484l0 101 0 7 0 7 0 18c36,39 149,76 301,81 2,0 3,0 5,0 4,0 9,0 13,0 6,0 13,0 19,0 6,0 12,0 19,0 4,0 8,0 13,0 1,0 3,0 5,0 151,-5 265,-42 300,-81l0 -18 0 -7 0 -7 0 -101c-65,48 -204,73 -337,73 -133,0 -272,-25 -338,-73z"/>
   <path class="fil1" d="M-919 1394c-16,-61 -132,-121 -336,-121 -204,0 -320,60 -336,121 -1,2 -2,4 -2,7l0 7 0 25c39,42 167,81 338,81 171,0 299,-39 337,-81l0 -25 0 -7c0,-3 0,-5 -1,-7z"/>
   <path class="fil1" d="M-1593 1854l0 117c0,2 1,4 2,6 16,69 159,121 336,121 177,0 319,-51 336,-121 1,-2 1,-4 1,-6l0 -117c-55,42 -170,74 -337,74 -167,0 -282,-32 -338,-74z"/>
  </g>
  <path class="fil1 str1" d="M-1552 1474c-76,10 -149,62 -181,132l-7 14 -23 0c-21,0 -23,0 -28,6l-5 5 0 76 0 76 5 6c5,5 7,5 28,5l23 0 7 14c27,59 84,107 146,125 132,37 268,-45 295,-179 8,-39 4,-93 -8,-125l-5 -11 51 0 51 0 -4 11c-8,19 -13,51 -13,78 0,58 19,108 57,154 31,37 81,66 130,76 104,22 214,-32 259,-129l6 -14 23 0c22,0 23,0 28,-5l5 -6 0 -76 0 -76 -5 -5c-5,-6 -6,-6 -28,-6l-23 0 -6 -14c-22,-46 -63,-88 -109,-110 -65,-31 -138,-32 -203,-1 -25,12 -36,19 -57,38l-15 13 -96 0 -95 0 -16 -14c-53,-46 -119,-66 -187,-58zm608 70c85,22 134,104 125,189 -11,96 -118,164 -210,137 -86,-24 -129,-100 -124,-186 6,-100 118,-162 209,-140l0 0zm-558 -4c68,8 122,54 143,121 4,13 5,20 5,45 0,34 -3,47 -16,73 -21,47 -64,81 -114,93 -21,5 -57,4 -78,-1 -62,-16 -109,-64 -124,-125 -4,-19 -4,-58 0,-78 17,-68 74,-119 144,-128 20,-3 20,-3 40,0z"/>
  <g id="_575643800">
   <path class="fil1 str2" d="M1300 837c-12,0 -23,0 -35,0 -12,0 -24,0 -35,0 -99,-3 -178,-18 -235,-39 -27,-9 -50,-21 -68,-33l0 101 0 7 0 7 0 18c39,42 168,81 338,81 170,0 299,-39 338,-81l0 -18 0 -7 0 -7 0 -101c-18,13 -41,24 -68,33 -57,21 -136,36 -235,39z"/>
   <path class="fil1 str2" d="M927 579l0 101 0 7 0 7 0 18c36,39 149,75 301,80 2,1 4,1 5,1 4,0 9,0 13,0 6,0 13,0 19,0 6,0 13,0 19,0 4,0 9,0 13,0 1,0 3,0 5,-1 152,-5 265,-41 301,-80l0 -18 0 -7 0 -7 0 -101c-66,47 -205,72 -338,72 -133,0 -272,-25 -338,-72z"/>
   <path class="fil1 str2" d="M1601 489c-15,-61 -132,-121 -336,-121 -204,0 -320,60 -336,121 -1,2 -2,4 -2,6l0 8 0 25c39,42 167,81 338,81 171,0 299,-39 338,-81l0 -25 0 -8c0,-2 -1,-4 -2,-6z"/>
   <path class="fil1 str2" d="M927 949l0 116c0,3 1,5 2,7 16,69 159,121 336,121 177,0 319,-52 336,-121 1,-2 2,-4 2,-7l0 -116c-56,41 -171,74 -338,74 -167,0 -282,-33 -338,-74z"/>
  </g>
  <path class="fil1 str3" d="M967 553c-76,9 -149,62 -182,132l-6 14 -23 0c-22,0 -23,0 -28,5l-5 6 0 76 0 76 5 5c5,6 6,6 28,6l23 0 6 14c28,58 84,107 147,125 131,37 267,-45 295,-179 8,-40 4,-93 -9,-126l-4 -10 51 0 50 0 -4 10c-7,20 -12,51 -12,79 0,58 18,108 57,153 30,37 81,67 129,77 105,22 215,-33 260,-129l6 -14 23 0c22,0 23,0 28,-6l5 -5 0 -76 0 -76 -5 -6c-5,-5 -6,-5 -28,-5l-23 0 -6 -14c-22,-46 -63,-88 -110,-110 -64,-32 -137,-32 -202,-1 -25,12 -36,19 -57,37l-15 14 -96 0 -96 0 -16 -14c-52,-46 -118,-67 -186,-58zm608 70c85,22 134,104 124,188 -10,97 -117,164 -209,138 -86,-25 -129,-100 -124,-186 6,-100 118,-163 209,-140l0 0zm-558 -5c67,9 121,55 142,121 4,14 5,21 5,46 0,33 -3,47 -15,73 -22,46 -64,81 -115,92 -21,6 -56,5 -78,-1 -61,-16 -108,-63 -123,-124 -5,-20 -5,-59 0,-78 17,-68 74,-120 144,-129 19,-2 20,-2 40,0z"/>
  <path class="fil2" d="M791 1243c0,8 -2,15 -4,21 -2,7 -6,12 -10,16 -4,4 -9,7 -14,9 -6,2 -12,3 -18,3 -4,0 -8,0 -12,-1 -4,-1 -7,-2 -10,-3 -2,-2 -5,-3 -7,-4 -1,-2 -3,-3 -4,-4 0,-1 -1,-2 -1,-4 -1,-2 -1,-5 -1,-9 0,-2 0,-4 0,-6 0,-2 1,-3 1,-4 0,-1 1,-2 1,-2 0,-1 1,-1 2,-1 1,0 2,1 3,2 2,1 4,3 7,4 2,2 5,3 9,5 3,1 7,2 12,2 3,0 6,-1 8,-2 3,-1 5,-2 7,-4 1,-1 2,-3 3,-6 1,-2 2,-5 2,-8 0,-4 -1,-7 -3,-9 -1,-3 -3,-5 -6,-7 -2,-2 -5,-4 -8,-5 -3,-2 -6,-4 -10,-6 -3,-2 -6,-4 -9,-6 -3,-3 -6,-6 -9,-9 -2,-4 -4,-8 -6,-12 -1,-5 -2,-11 -2,-17 0,-7 1,-14 3,-20 3,-5 6,-10 9,-14 4,-4 8,-6 13,-8 6,-2 11,-3 17,-3 2,0 5,0 8,1 3,0 6,1 8,2 3,1 5,2 7,3 2,2 4,3 4,3 1,1 1,2 1,3 1,0 1,1 1,2 0,1 0,2 0,3 0,2 0,3 0,5 0,3 0,5 0,6 0,2 0,3 0,4 0,1 -1,2 -1,3 -1,0 -1,0 -2,0 0,0 -2,0 -3,-1 -2,-1 -4,-3 -6,-4 -2,-1 -5,-3 -7,-4 -3,-1 -7,-1 -10,-1 -3,0 -5,0 -7,1 -2,1 -4,2 -5,3 -2,2 -3,4 -3,6 -1,2 -1,4 -1,6 0,4 0,7 2,9 1,3 3,5 6,7 2,2 5,4 8,6 4,1 7,3 10,5 3,2 7,4 10,7 3,2 6,5 8,9 3,3 5,7 6,12 2,4 3,10 3,16z"/>
  <path id="1" class="fil2" d="M932 1304c0,3 0,6 0,7 0,2 -1,3 -1,4 0,1 -1,2 -1,2 -1,1 -1,1 -2,1 -2,0 -4,-1 -8,-2 -3,-2 -7,-4 -11,-7 -4,-2 -8,-6 -12,-10 -4,-3 -8,-8 -11,-13 -3,2 -7,3 -11,4 -4,2 -9,2 -14,2 -9,0 -18,-1 -25,-4 -7,-3 -13,-8 -18,-15 -5,-6 -8,-14 -11,-25 -2,-10 -3,-22 -3,-35 0,-13 1,-24 4,-34 2,-11 6,-19 11,-26 5,-7 11,-13 19,-16 7,-4 16,-6 25,-6 10,0 18,2 25,5 7,3 13,8 18,14 5,7 8,15 11,25 2,9 4,21 4,35 0,7 -1,13 -2,19 0,6 -1,12 -3,17 -1,6 -3,10 -5,15 -2,4 -4,8 -7,11 4,4 8,8 11,10 3,2 5,4 7,5 3,1 4,2 5,3 2,0 3,1 3,2 1,0 2,2 2,4 0,2 0,5 0,8zm-38 -93c0,-8 0,-15 -1,-22 -1,-7 -3,-12 -5,-17 -3,-5 -6,-9 -10,-11 -4,-3 -9,-4 -15,-4 -7,0 -12,1 -16,4 -4,3 -7,7 -10,12 -2,5 -4,11 -5,17 -1,7 -2,14 -2,21 0,8 1,16 2,23 1,7 2,13 5,17 2,5 6,9 10,11 4,3 9,4 15,4 6,0 11,-1 15,-4 4,-3 8,-7 10,-12 3,-5 5,-11 6,-17 1,-7 1,-14 1,-22z"/>
  <path id="2" class="fil2" d="M1011 1276c0,3 0,5 0,6 0,2 0,3 -1,5 0,1 0,1 -1,2 0,0 -1,1 -1,1l-57 0c-2,0 -4,-1 -5,-3 -2,-1 -2,-4 -2,-7l0 -142c0,-1 0,-1 0,-2 1,-1 1,-1 2,-2 1,0 3,0 4,-1 2,0 4,0 6,0 3,0 5,0 6,0 2,1 3,1 4,1 1,1 2,1 2,2 1,1 1,1 1,2l0 125 39 0c0,0 1,1 1,1 1,1 1,1 1,2 1,1 1,3 1,4 0,2 0,4 0,6z"/>
  <path id="3" class="fil2" d="M1145 1282c0,1 -1,3 -2,4 0,1 -1,2 -3,3 -1,0 -3,1 -5,1 -2,0 -4,0 -8,0 -3,0 -6,0 -8,0 -3,0 -4,-1 -6,-1 -1,-1 -2,-2 -2,-3 -1,-1 -1,-3 -2,-4l-19 -99 -1 0 -18 99c-1,1 -1,3 -2,4 0,1 -1,2 -2,3 -2,0 -3,1 -5,1 -3,0 -5,0 -9,0 -4,0 -6,0 -9,0 -2,0 -4,-1 -5,-1 -1,-1 -2,-2 -3,-3 0,-1 -1,-3 -1,-4l-28 -136c-1,-3 -1,-6 -1,-7 0,-2 0,-3 1,-4 1,-1 2,-1 4,-2 2,0 4,0 8,0 3,0 5,0 7,0 1,0 3,1 4,1 0,1 1,1 1,2 1,1 1,2 1,4l22 119 0 0 22 -119c1,-1 1,-2 1,-3 1,-1 2,-2 3,-3 0,0 2,0 4,-1 1,0 4,0 6,0 4,0 6,0 8,0 2,0 3,1 4,1 1,1 2,2 2,3 1,0 1,2 1,3l23 119 1 0 21 -119c0,-1 1,-2 1,-3 0,-1 1,-2 2,-3 1,0 2,0 3,-1 2,0 4,0 7,0 3,0 5,0 7,0 2,1 3,1 3,2 1,1 1,2 1,4 0,2 0,4 -1,7l-28 136z"/>
  <path id="4" class="fil2" d="M1284 1278c1,3 1,5 1,7 1,1 0,3 0,3 -1,1 -2,2 -4,2 -2,0 -4,0 -7,0 -4,0 -6,0 -8,0 -2,0 -3,0 -4,-1 -1,0 -2,0 -2,-1 0,-1 -1,-2 -1,-3l-8 -31 -47 0 -7 31c-1,1 -1,2 -1,2 -1,1 -1,2 -2,2 -1,1 -3,1 -4,1 -2,0 -4,0 -7,0 -3,0 -5,0 -7,0 -1,0 -3,-1 -3,-2 -1,-1 -1,-2 -1,-4 0,-1 1,-4 2,-6l38 -139c0,-1 0,-2 1,-3 0,-1 1,-1 2,-2 1,0 3,-1 5,-1 2,0 4,0 8,0 3,0 6,0 9,0 2,0 4,1 5,1 1,1 2,1 3,2 0,1 1,2 1,4l38 138zm-57 -115l0 0 -17 67 35 0 -18 -67z"/>
  <path id="5" class="fil2" d="M1368 1147c0,2 0,4 0,6 0,1 -1,3 -1,4 0,1 -1,1 -1,2 -1,0 -1,1 -2,1l-31 0 0 125c0,1 0,2 0,2 -1,1 -1,2 -2,2 -1,0 -2,1 -4,1 -2,0 -4,0 -6,0 -3,0 -5,0 -6,0 -2,0 -3,-1 -4,-1 -1,0 -2,-1 -2,-2 0,0 -1,-1 -1,-2l0 -125 -31 0c0,0 -1,-1 -1,-1 -1,-1 -1,-1 -1,-2 -1,-1 -1,-3 -1,-4 0,-2 0,-4 0,-6 0,-3 0,-5 0,-6 0,-2 0,-3 1,-4 0,-1 0,-2 1,-3 0,0 1,0 1,0l87 0c1,0 1,0 2,0 0,1 1,2 1,3 0,1 1,2 1,4 0,1 0,3 0,6z"/>
  <path id="6" class="fil2" d="M1464 1266c0,2 0,4 0,5 -1,2 -1,3 -1,4 0,1 0,2 -1,2 0,1 0,2 -1,3 -1,1 -2,2 -4,3 -2,2 -5,3 -8,5 -2,1 -6,2 -9,3 -4,1 -8,1 -12,1 -9,0 -17,-2 -23,-5 -7,-3 -13,-8 -18,-15 -4,-6 -8,-14 -11,-24 -2,-10 -3,-21 -3,-34 0,-13 1,-25 4,-36 3,-10 6,-18 11,-25 5,-7 11,-13 19,-16 7,-4 14,-6 23,-6 3,0 6,1 10,1 3,1 6,2 8,3 3,1 6,3 8,4 2,2 3,3 4,4 1,1 2,2 2,3 0,1 1,2 1,3 0,1 0,2 0,4 0,1 0,3 0,5 0,3 0,5 0,6 0,2 0,3 -1,5 0,1 0,1 -1,2 0,0 -1,1 -1,1 -1,0 -2,-1 -4,-3 -1,-1 -3,-3 -5,-4 -3,-2 -6,-4 -9,-5 -3,-1 -7,-2 -11,-2 -5,0 -9,1 -13,4 -4,2 -7,6 -10,11 -3,4 -5,10 -6,17 -2,6 -2,14 -2,22 0,9 0,17 2,24 1,6 4,12 6,16 3,5 6,8 10,10 4,2 9,3 13,3 5,0 9,0 12,-2 3,-1 6,-3 8,-4 3,-2 5,-3 6,-4 2,-2 3,-2 3,-2 1,0 2,0 2,0 0,0 1,1 1,2 0,1 0,2 1,4 0,2 0,4 0,7z"/>
  <path id="7" class="fil2" d="M1578 1285c0,1 0,2 -1,2 0,1 -1,2 -2,2 -1,0 -2,1 -4,1 -1,0 -3,0 -5,0 -3,0 -5,0 -7,0 -1,0 -2,-1 -3,-1 -1,0 -2,-1 -2,-2 -1,0 -1,-1 -1,-2l0 -63 -46 0 0 63c0,1 0,2 -1,2 0,1 -1,2 -2,2 -1,0 -2,1 -4,1 -1,0 -3,0 -6,0 -2,0 -4,0 -6,0 -1,0 -3,-1 -4,-1 -1,0 -1,-1 -2,-2 0,0 0,-1 0,-2l0 -147c0,-1 0,-1 0,-2 1,-1 1,-1 2,-2 1,0 3,0 4,-1 2,0 4,0 6,0 3,0 5,0 6,0 2,1 3,1 4,1 1,1 2,1 2,2 1,1 1,1 1,2l0 57 46 0 0 -57c0,-1 0,-1 1,-2 0,-1 1,-1 2,-2 1,0 2,0 3,-1 2,0 4,0 7,0 2,0 4,0 5,0 2,1 3,1 4,1 1,1 2,1 2,2 1,1 1,1 1,2l0 147z"/>
  <path id="8" class="fil2" d="M1632 1272c0,8 -1,13 -3,15 -3,3 -6,4 -12,4 -5,0 -9,-1 -11,-4 -2,-2 -3,-7 -3,-14 0,-8 1,-13 3,-15 2,-3 6,-4 12,-4 5,0 9,1 11,4 2,2 3,7 3,14z"/>
  <path id="9" class="fil2" d="M1682 1285c0,1 0,2 0,2 -1,1 -2,2 -2,2 -1,0 -3,1 -4,1 -2,0 -4,0 -6,0 -3,0 -5,0 -6,0 -2,0 -3,-1 -4,-1 -1,0 -2,-1 -2,-2 -1,0 -1,-1 -1,-2l0 -147c0,-1 0,-1 1,-2 0,-1 1,-1 2,-2 1,0 2,0 4,-1 1,0 3,0 6,0 2,0 4,0 6,0 1,1 3,1 4,1 0,1 1,1 2,2 0,1 0,1 0,2l0 147z"/>
  <path id="10" class="fil2" d="M1820 1210c0,13 -1,24 -4,35 -2,10 -6,18 -11,25 -5,8 -11,13 -19,17 -7,3 -16,5 -26,5 -9,0 -17,-1 -25,-4 -7,-4 -13,-8 -18,-15 -4,-6 -8,-15 -10,-25 -3,-10 -4,-22 -4,-35 0,-13 1,-24 4,-34 3,-10 6,-19 11,-26 5,-7 12,-13 19,-16 7,-4 16,-6 26,-6 9,0 17,2 25,5 7,3 13,8 17,14 5,7 9,15 11,25 3,10 4,21 4,35zm-26 1c0,-8 -1,-15 -2,-22 -1,-7 -3,-12 -5,-17 -3,-5 -6,-9 -10,-11 -4,-3 -9,-4 -15,-4 -6,0 -11,1 -15,4 -5,3 -8,7 -11,12 -2,5 -4,11 -5,17 -1,7 -1,14 -1,21 0,9 0,16 1,23 1,7 3,13 5,17 3,5 6,9 10,11 4,3 9,4 15,4 6,0 12,-1 16,-4 4,-3 7,-7 10,-12 2,-5 4,-11 5,-17 1,-7 2,-14 2,-22z"/>
  <path id="11" class="fil3 str4" d="M791 1243c0,8 -2,15 -4,21 -2,7 -6,12 -10,16 -4,4 -9,7 -14,9 -6,2 -12,3 -18,3 -4,0 -8,0 -12,-1 -4,-1 -7,-2 -10,-3 -2,-2 -5,-3 -7,-4 -1,-2 -3,-3 -4,-4 0,-1 -1,-2 -1,-4 -1,-2 -1,-5 -1,-9 0,-2 0,-4 0,-6 0,-2 1,-3 1,-4 0,-1 1,-2 1,-2 0,-1 1,-1 2,-1 1,0 2,1 3,2 2,1 4,3 7,4 2,2 5,3 9,5 3,1 7,2 12,2 3,0 6,-1 8,-2 3,-1 5,-2 7,-4 1,-1 2,-3 3,-6 1,-2 2,-5 2,-8 0,-4 -1,-7 -3,-9 -1,-3 -3,-5 -6,-7 -2,-2 -5,-4 -8,-5 -3,-2 -6,-4 -10,-6 -3,-2 -6,-4 -9,-6 -3,-3 -6,-6 -9,-9 -2,-4 -4,-8 -6,-12 -1,-5 -2,-11 -2,-17 0,-7 1,-14 3,-20 3,-5 6,-10 9,-14 4,-4 8,-6 13,-8 6,-2 11,-3 17,-3 2,0 5,0 8,1 3,0 6,1 8,2 3,1 5,2 7,3 2,2 4,3 4,3 1,1 1,2 1,3 1,0 1,1 1,2 0,1 0,2 0,3 0,2 0,3 0,5 0,3 0,5 0,6 0,2 0,3 0,4 0,1 -1,2 -1,3 -1,0 -1,0 -2,0 0,0 -2,0 -3,-1 -2,-1 -4,-3 -6,-4 -2,-1 -5,-3 -7,-4 -3,-1 -7,-1 -10,-1 -3,0 -5,0 -7,1 -2,1 -4,2 -5,3 -2,2 -3,4 -3,6 -1,2 -1,4 -1,6 0,4 0,7 2,9 1,3 3,5 6,7 2,2 5,4 8,6 4,1 7,3 10,5 3,2 7,4 10,7 3,2 6,5 8,9 3,3 5,7 6,12 2,4 3,10 3,16z"/>
  <path id="12" class="fil3 str4" d="M932 1304c0,3 0,6 0,7 0,2 -1,3 -1,4 0,1 -1,2 -1,2 -1,1 -1,1 -2,1 -2,0 -4,-1 -8,-2 -3,-2 -7,-4 -11,-7 -4,-2 -8,-6 -12,-10 -4,-3 -8,-8 -11,-13 -3,2 -7,3 -11,4 -4,2 -9,2 -14,2 -9,0 -18,-1 -25,-4 -7,-3 -13,-8 -18,-15 -5,-6 -8,-14 -11,-25 -2,-10 -3,-22 -3,-35 0,-13 1,-24 4,-34 2,-11 6,-19 11,-26 5,-7 11,-13 19,-16 7,-4 16,-6 25,-6 10,0 18,2 25,5 7,3 13,8 18,14 5,7 8,15 11,25 2,9 4,21 4,35 0,7 -1,13 -2,19 0,6 -1,12 -3,17 -1,6 -3,10 -5,15 -2,4 -4,8 -7,11 4,4 8,8 11,10 3,2 5,4 7,5 3,1 4,2 5,3 2,0 3,1 3,2 1,0 2,2 2,4 0,2 0,5 0,8zm-38 -93c0,-8 0,-15 -1,-22 -1,-7 -3,-12 -5,-17 -3,-5 -6,-9 -10,-11 -4,-3 -9,-4 -15,-4 -7,0 -12,1 -16,4 -4,3 -7,7 -10,12 -2,5 -4,11 -5,17 -1,7 -2,14 -2,21 0,8 1,16 2,23 1,7 2,13 5,17 2,5 6,9 10,11 4,3 9,4 15,4 6,0 11,-1 15,-4 4,-3 8,-7 10,-12 3,-5 5,-11 6,-17 1,-7 1,-14 1,-22z"/>
  <path id="13" class="fil3 str4" d="M1011 1276c0,3 0,5 0,6 0,2 0,3 -1,5 0,1 0,1 -1,2 0,0 -1,1 -1,1l-57 0c-2,0 -4,-1 -5,-3 -2,-1 -2,-4 -2,-7l0 -142c0,-1 0,-1 0,-2 1,-1 1,-1 2,-2 1,0 3,0 4,-1 2,0 4,0 6,0 3,0 5,0 6,0 2,1 3,1 4,1 1,1 2,1 2,2 1,1 1,1 1,2l0 125 39 0c0,0 1,1 1,1 1,1 1,1 1,2 1,1 1,3 1,4 0,2 0,4 0,6z"/>
  <path id="14" class="fil3 str4" d="M1145 1282c0,1 -1,3 -2,4 0,1 -1,2 -3,3 -1,0 -3,1 -5,1 -2,0 -4,0 -8,0 -3,0 -6,0 -8,0 -3,0 -4,-1 -6,-1 -1,-1 -2,-2 -2,-3 -1,-1 -1,-3 -2,-4l-19 -99 -1 0 -18 99c-1,1 -1,3 -2,4 0,1 -1,2 -2,3 -2,0 -3,1 -5,1 -3,0 -5,0 -9,0 -4,0 -6,0 -9,0 -2,0 -4,-1 -5,-1 -1,-1 -2,-2 -3,-3 0,-1 -1,-3 -1,-4l-28 -136c-1,-3 -1,-6 -1,-7 0,-2 0,-3 1,-4 1,-1 2,-1 4,-2 2,0 4,0 8,0 3,0 5,0 7,0 1,0 3,1 4,1 0,1 1,1 1,2 1,1 1,2 1,4l22 119 0 0 22 -119c1,-1 1,-2 1,-3 1,-1 2,-2 3,-3 0,0 2,0 4,-1 1,0 4,0 6,0 4,0 6,0 8,0 2,0 3,1 4,1 1,1 2,2 2,3 1,0 1,2 1,3l23 119 1 0 21 -119c0,-1 1,-2 1,-3 0,-1 1,-2 2,-3 1,0 2,0 3,-1 2,0 4,0 7,0 3,0 5,0 7,0 2,1 3,1 3,2 1,1 1,2 1,4 0,2 0,4 -1,7l-28 136z"/>
  <path id="15" class="fil3 str4" d="M1284 1278c1,3 1,5 1,7 1,1 0,3 0,3 -1,1 -2,2 -4,2 -2,0 -4,0 -7,0 -4,0 -6,0 -8,0 -2,0 -3,0 -4,-1 -1,0 -2,0 -2,-1 0,-1 -1,-2 -1,-3l-8 -31 -47 0 -7 31c-1,1 -1,2 -1,2 -1,1 -1,2 -2,2 -1,1 -3,1 -4,1 -2,0 -4,0 -7,0 -3,0 -5,0 -7,0 -1,0 -3,-1 -3,-2 -1,-1 -1,-2 -1,-4 0,-1 1,-4 2,-6l38 -139c0,-1 0,-2 1,-3 0,-1 1,-1 2,-2 1,0 3,-1 5,-1 2,0 4,0 8,0 3,0 6,0 9,0 2,0 4,1 5,1 1,1 2,1 3,2 0,1 1,2 1,4l38 138zm-57 -115l0 0 -17 67 35 0 -18 -67z"/>
  <path id="16" class="fil3 str4" d="M1368 1147c0,2 0,4 0,6 0,1 -1,3 -1,4 0,1 -1,1 -1,2 -1,0 -1,1 -2,1l-31 0 0 125c0,1 0,2 0,2 -1,1 -1,2 -2,2 -1,0 -2,1 -4,1 -2,0 -4,0 -6,0 -3,0 -5,0 -6,0 -2,0 -3,-1 -4,-1 -1,0 -2,-1 -2,-2 0,0 -1,-1 -1,-2l0 -125 -31 0c0,0 -1,-1 -1,-1 -1,-1 -1,-1 -1,-2 -1,-1 -1,-3 -1,-4 0,-2 0,-4 0,-6 0,-3 0,-5 0,-6 0,-2 0,-3 1,-4 0,-1 0,-2 1,-3 0,0 1,0 1,0l87 0c1,0 1,0 2,0 0,1 1,2 1,3 0,1 1,2 1,4 0,1 0,3 0,6z"/>
  <path id="17" class="fil3 str4" d="M1464 1266c0,2 0,4 0,5 -1,2 -1,3 -1,4 0,1 0,2 -1,2 0,1 0,2 -1,3 -1,1 -2,2 -4,3 -2,2 -5,3 -8,5 -2,1 -6,2 -9,3 -4,1 -8,1 -12,1 -9,0 -17,-2 -23,-5 -7,-3 -13,-8 -18,-15 -4,-6 -8,-14 -11,-24 -2,-10 -3,-21 -3,-34 0,-13 1,-25 4,-36 3,-10 6,-18 11,-25 5,-7 11,-13 19,-16 7,-4 14,-6 23,-6 3,0 6,1 10,1 3,1 6,2 8,3 3,1 6,3 8,4 2,2 3,3 4,4 1,1 2,2 2,3 0,1 1,2 1,3 0,1 0,2 0,4 0,1 0,3 0,5 0,3 0,5 0,6 0,2 0,3 -1,5 0,1 0,1 -1,2 0,0 -1,1 -1,1 -1,0 -2,-1 -4,-3 -1,-1 -3,-3 -5,-4 -3,-2 -6,-4 -9,-5 -3,-1 -7,-2 -11,-2 -5,0 -9,1 -13,4 -4,2 -7,6 -10,11 -3,4 -5,10 -6,17 -2,6 -2,14 -2,22 0,9 0,17 2,24 1,6 4,12 6,16 3,5 6,8 10,10 4,2 9,3 13,3 5,0 9,0 12,-2 3,-1 6,-3 8,-4 3,-2 5,-3 6,-4 2,-2 3,-2 3,-2 1,0 2,0 2,0 0,0 1,1 1,2 0,1 0,2 1,4 0,2 0,4 0,7z"/>
  <path id="18" class="fil3 str4" d="M1578 1285c0,1 0,2 -1,2 0,1 -1,2 -2,2 -1,0 -2,1 -4,1 -1,0 -3,0 -5,0 -3,0 -5,0 -7,0 -1,0 -2,-1 -3,-1 -1,0 -2,-1 -2,-2 -1,0 -1,-1 -1,-2l0 -63 -46 0 0 63c0,1 0,2 -1,2 0,1 -1,2 -2,2 -1,0 -2,1 -4,1 -1,0 -3,0 -6,0 -2,0 -4,0 -6,0 -1,0 -3,-1 -4,-1 -1,0 -1,-1 -2,-2 0,0 0,-1 0,-2l0 -147c0,-1 0,-1 0,-2 1,-1 1,-1 2,-2 1,0 3,0 4,-1 2,0 4,0 6,0 3,0 5,0 6,0 2,1 3,1 4,1 1,1 2,1 2,2 1,1 1,1 1,2l0 57 46 0 0 -57c0,-1 0,-1 1,-2 0,-1 1,-1 2,-2 1,0 2,0 3,-1 2,0 4,0 7,0 2,0 4,0 5,0 2,1 3,1 4,1 1,1 2,1 2,2 1,1 1,1 1,2l0 147z"/>
  <path id="19" class="fil3 str4" d="M1632 1272c0,8 -1,13 -3,15 -3,3 -6,4 -12,4 -5,0 -9,-1 -11,-4 -2,-2 -3,-7 -3,-14 0,-8 1,-13 3,-15 2,-3 6,-4 12,-4 5,0 9,1 11,4 2,2 3,7 3,14z"/>
  <path id="20" class="fil3 str4" d="M1682 1285c0,1 0,2 0,2 -1,1 -2,2 -2,2 -1,0 -3,1 -4,1 -2,0 -4,0 -6,0 -3,0 -5,0 -6,0 -2,0 -3,-1 -4,-1 -1,0 -2,-1 -2,-2 -1,0 -1,-1 -1,-2l0 -147c0,-1 0,-1 1,-2 0,-1 1,-1 2,-2 1,0 2,0 4,-1 1,0 3,0 6,0 2,0 4,0 6,0 1,1 3,1 4,1 0,1 1,1 2,2 0,1 0,1 0,2l0 147z"/>
  <path id="21" class="fil3 str4" d="M1820 1210c0,13 -1,24 -4,35 -2,10 -6,18 -11,25 -5,8 -11,13 -19,17 -7,3 -16,5 -26,5 -9,0 -17,-1 -25,-4 -7,-4 -13,-8 -18,-15 -4,-6 -8,-15 -10,-25 -3,-10 -4,-22 -4,-35 0,-13 1,-24 4,-34 3,-10 6,-19 11,-26 5,-7 12,-13 19,-16 7,-4 16,-6 26,-6 9,0 17,2 25,5 7,3 13,8 17,14 5,7 9,15 11,25 3,10 4,21 4,35zm-26 1c0,-8 -1,-15 -2,-22 -1,-7 -3,-12 -5,-17 -3,-5 -6,-9 -10,-11 -4,-3 -9,-4 -15,-4 -6,0 -11,1 -15,4 -5,3 -8,7 -11,12 -2,5 -4,11 -5,17 -1,7 -1,14 -1,21 0,9 0,16 1,23 1,7 3,13 5,17 3,5 6,9 10,11 4,3 9,4 15,4 6,0 12,-1 16,-4 4,-3 7,-7 10,-12 2,-5 4,-11 5,-17 1,-7 2,-14 2,-22z"/>
  <g id="_575642648">
   <path class="fil1 str1" d="M1300 837c-12,0 -23,0 -35,0 -12,0 -24,0 -35,0 -99,-3 -178,-18 -235,-39 -27,-9 -50,-21 -68,-33l0 101 0 7 0 7 0 18c39,42 168,81 338,81 170,0 299,-39 338,-81l0 -18 0 -7 0 -7 0 -101c-18,13 -41,24 -68,33 -57,21 -136,36 -235,39z"/>
   <path class="fil1 str1" d="M927 579l0 101 0 7 0 7 0 18c36,39 149,75 301,80 2,1 4,1 5,1 4,0 9,0 13,0 6,0 13,0 19,0 6,0 13,0 19,0 4,0 9,0 13,0 1,0 3,0 5,-1 152,-5 265,-41 301,-80l0 -18 0 -7 0 -7 0 -101c-66,47 -205,72 -338,72 -133,0 -272,-25 -338,-72z"/>
   <path class="fil1 str1" d="M1601 489c-15,-61 -132,-121 -336,-121 -204,0 -320,60 -336,121 -1,2 -2,4 -2,6l0 8 0 25c39,42 167,81 338,81 171,0 299,-39 338,-81l0 -25 0 -8c0,-2 -1,-4 -2,-6z"/>
   <path class="fil1 str1" d="M927 949l0 116c0,3 1,5 2,7 16,69 159,121 336,121 177,0 319,-52 336,-121 1,-2 2,-4 2,-7l0 -116c-56,41 -171,74 -338,74 -167,0 -282,-33 -338,-74z"/>
  </g>
  <path class="fil2" d="M791 1243c0,8 -2,15 -4,21 -2,7 -6,12 -10,16 -4,4 -9,7 -14,9 -6,2 -12,3 -18,3 -4,0 -8,0 -12,-1 -4,-1 -7,-2 -10,-3 -2,-2 -5,-3 -7,-4 -1,-2 -3,-3 -4,-4 0,-1 -1,-2 -1,-4 -1,-2 -1,-5 -1,-9 0,-2 0,-4 0,-6 0,-2 1,-3 1,-4 0,-1 1,-2 1,-2 0,-1 1,-1 2,-1 1,0 2,1 3,2 2,1 4,3 7,4 2,2 5,3 9,5 3,1 7,2 12,2 3,0 6,-1 8,-2 3,-1 5,-2 7,-4 1,-1 2,-3 3,-6 1,-2 2,-5 2,-8 0,-4 -1,-7 -3,-9 -1,-3 -3,-5 -6,-7 -2,-2 -5,-4 -8,-5 -3,-2 -6,-4 -10,-6 -3,-2 -6,-4 -9,-6 -3,-3 -6,-6 -9,-9 -2,-4 -4,-8 -6,-12 -1,-5 -2,-11 -2,-17 0,-7 1,-14 3,-20 3,-5 6,-10 9,-14 4,-4 8,-6 13,-8 6,-2 11,-3 17,-3 2,0 5,0 8,1 3,0 6,1 8,2 3,1 5,2 7,3 2,2 4,3 4,3 1,1 1,2 1,3 1,0 1,1 1,2 0,1 0,2 0,3 0,2 0,3 0,5 0,3 0,5 0,6 0,2 0,3 0,4 0,1 -1,2 -1,3 -1,0 -1,0 -2,0 0,0 -2,0 -3,-1 -2,-1 -4,-3 -6,-4 -2,-1 -5,-3 -7,-4 -3,-1 -7,-1 -10,-1 -3,0 -5,0 -7,1 -2,1 -4,2 -5,3 -2,2 -3,4 -3,6 -1,2 -1,4 -1,6 0,4 0,7 2,9 1,3 3,5 6,7 2,2 5,4 8,6 4,1 7,3 10,5 3,2 7,4 10,7 3,2 6,5 8,9 3,3 5,7 6,12 2,4 3,10 3,16z"/>
  <path id="1" class="fil2" d="M932 1304c0,3 0,6 0,7 0,2 -1,3 -1,4 0,1 -1,2 -1,2 -1,1 -1,1 -2,1 -2,0 -4,-1 -8,-2 -3,-2 -7,-4 -11,-7 -4,-2 -8,-6 -12,-10 -4,-3 -8,-8 -11,-13 -3,2 -7,3 -11,4 -4,2 -9,2 -14,2 -9,0 -18,-1 -25,-4 -7,-3 -13,-8 -18,-15 -5,-6 -8,-14 -11,-25 -2,-10 -3,-22 -3,-35 0,-13 1,-24 4,-34 2,-11 6,-19 11,-26 5,-7 11,-13 19,-16 7,-4 16,-6 25,-6 10,0 18,2 25,5 7,3 13,8 18,14 5,7 8,15 11,25 2,9 4,21 4,35 0,7 -1,13 -2,19 0,6 -1,12 -3,17 -1,6 -3,10 -5,15 -2,4 -4,8 -7,11 4,4 8,8 11,10 3,2 5,4 7,5 3,1 4,2 5,3 2,0 3,1 3,2 1,0 2,2 2,4 0,2 0,5 0,8zm-38 -93c0,-8 0,-15 -1,-22 -1,-7 -3,-12 -5,-17 -3,-5 -6,-9 -10,-11 -4,-3 -9,-4 -15,-4 -7,0 -12,1 -16,4 -4,3 -7,7 -10,12 -2,5 -4,11 -5,17 -1,7 -2,14 -2,21 0,8 1,16 2,23 1,7 2,13 5,17 2,5 6,9 10,11 4,3 9,4 15,4 6,0 11,-1 15,-4 4,-3 8,-7 10,-12 3,-5 5,-11 6,-17 1,-7 1,-14 1,-22z"/>
  <path id="2" class="fil2" d="M1011 1276c0,3 0,5 0,6 0,2 0,3 -1,5 0,1 0,1 -1,2 0,0 -1,1 -1,1l-57 0c-2,0 -4,-1 -5,-3 -2,-1 -2,-4 -2,-7l0 -142c0,-1 0,-1 0,-2 1,-1 1,-1 2,-2 1,0 3,0 4,-1 2,0 4,0 6,0 3,0 5,0 6,0 2,1 3,1 4,1 1,1 2,1 2,2 1,1 1,1 1,2l0 125 39 0c0,0 1,1 1,1 1,1 1,1 1,2 1,1 1,3 1,4 0,2 0,4 0,6z"/>
  <path id="3" class="fil2" d="M1145 1282c0,1 -1,3 -2,4 0,1 -1,2 -3,3 -1,0 -3,1 -5,1 -2,0 -4,0 -8,0 -3,0 -6,0 -8,0 -3,0 -4,-1 -6,-1 -1,-1 -2,-2 -2,-3 -1,-1 -1,-3 -2,-4l-19 -99 -1 0 -18 99c-1,1 -1,3 -2,4 0,1 -1,2 -2,3 -2,0 -3,1 -5,1 -3,0 -5,0 -9,0 -4,0 -6,0 -9,0 -2,0 -4,-1 -5,-1 -1,-1 -2,-2 -3,-3 0,-1 -1,-3 -1,-4l-28 -136c-1,-3 -1,-6 -1,-7 0,-2 0,-3 1,-4 1,-1 2,-1 4,-2 2,0 4,0 8,0 3,0 5,0 7,0 1,0 3,1 4,1 0,1 1,1 1,2 1,1 1,2 1,4l22 119 0 0 22 -119c1,-1 1,-2 1,-3 1,-1 2,-2 3,-3 0,0 2,0 4,-1 1,0 4,0 6,0 4,0 6,0 8,0 2,0 3,1 4,1 1,1 2,2 2,3 1,0 1,2 1,3l23 119 1 0 21 -119c0,-1 1,-2 1,-3 0,-1 1,-2 2,-3 1,0 2,0 3,-1 2,0 4,0 7,0 3,0 5,0 7,0 2,1 3,1 3,2 1,1 1,2 1,4 0,2 0,4 -1,7l-28 136z"/>
  <path id="4" class="fil2" d="M1284 1278c1,3 1,5 1,7 1,1 0,3 0,3 -1,1 -2,2 -4,2 -2,0 -4,0 -7,0 -4,0 -6,0 -8,0 -2,0 -3,0 -4,-1 -1,0 -2,0 -2,-1 0,-1 -1,-2 -1,-3l-8 -31 -47 0 -7 31c-1,1 -1,2 -1,2 -1,1 -1,2 -2,2 -1,1 -3,1 -4,1 -2,0 -4,0 -7,0 -3,0 -5,0 -7,0 -1,0 -3,-1 -3,-2 -1,-1 -1,-2 -1,-4 0,-1 1,-4 2,-6l38 -139c0,-1 0,-2 1,-3 0,-1 1,-1 2,-2 1,0 3,-1 5,-1 2,0 4,0 8,0 3,0 6,0 9,0 2,0 4,1 5,1 1,1 2,1 3,2 0,1 1,2 1,4l38 138zm-57 -115l0 0 -17 67 35 0 -18 -67z"/>
  <path id="5" class="fil2" d="M1368 1147c0,2 0,4 0,6 0,1 -1,3 -1,4 0,1 -1,1 -1,2 -1,0 -1,1 -2,1l-31 0 0 125c0,1 0,2 0,2 -1,1 -1,2 -2,2 -1,0 -2,1 -4,1 -2,0 -4,0 -6,0 -3,0 -5,0 -6,0 -2,0 -3,-1 -4,-1 -1,0 -2,-1 -2,-2 0,0 -1,-1 -1,-2l0 -125 -31 0c0,0 -1,-1 -1,-1 -1,-1 -1,-1 -1,-2 -1,-1 -1,-3 -1,-4 0,-2 0,-4 0,-6 0,-3 0,-5 0,-6 0,-2 0,-3 1,-4 0,-1 0,-2 1,-3 0,0 1,0 1,0l87 0c1,0 1,0 2,0 0,1 1,2 1,3 0,1 1,2 1,4 0,1 0,3 0,6z"/>
  <path id="6" class="fil2" d="M1464 1266c0,2 0,4 0,5 -1,2 -1,3 -1,4 0,1 0,2 -1,2 0,1 0,2 -1,3 -1,1 -2,2 -4,3 -2,2 -5,3 -8,5 -2,1 -6,2 -9,3 -4,1 -8,1 -12,1 -9,0 -17,-2 -23,-5 -7,-3 -13,-8 -18,-15 -4,-6 -8,-14 -11,-24 -2,-10 -3,-21 -3,-34 0,-13 1,-25 4,-36 3,-10 6,-18 11,-25 5,-7 11,-13 19,-16 7,-4 14,-6 23,-6 3,0 6,1 10,1 3,1 6,2 8,3 3,1 6,3 8,4 2,2 3,3 4,4 1,1 2,2 2,3 0,1 1,2 1,3 0,1 0,2 0,4 0,1 0,3 0,5 0,3 0,5 0,6 0,2 0,3 -1,5 0,1 0,1 -1,2 0,0 -1,1 -1,1 -1,0 -2,-1 -4,-3 -1,-1 -3,-3 -5,-4 -3,-2 -6,-4 -9,-5 -3,-1 -7,-2 -11,-2 -5,0 -9,1 -13,4 -4,2 -7,6 -10,11 -3,4 -5,10 -6,17 -2,6 -2,14 -2,22 0,9 0,17 2,24 1,6 4,12 6,16 3,5 6,8 10,10 4,2 9,3 13,3 5,0 9,0 12,-2 3,-1 6,-3 8,-4 3,-2 5,-3 6,-4 2,-2 3,-2 3,-2 1,0 2,0 2,0 0,0 1,1 1,2 0,1 0,2 1,4 0,2 0,4 0,7z"/>
  <path id="7" class="fil2" d="M1578 1285c0,1 0,2 -1,2 0,1 -1,2 -2,2 -1,0 -2,1 -4,1 -1,0 -3,0 -5,0 -3,0 -5,0 -7,0 -1,0 -2,-1 -3,-1 -1,0 -2,-1 -2,-2 -1,0 -1,-1 -1,-2l0 -63 -46 0 0 63c0,1 0,2 -1,2 0,1 -1,2 -2,2 -1,0 -2,1 -4,1 -1,0 -3,0 -6,0 -2,0 -4,0 -6,0 -1,0 -3,-1 -4,-1 -1,0 -1,-1 -2,-2 0,0 0,-1 0,-2l0 -147c0,-1 0,-1 0,-2 1,-1 1,-1 2,-2 1,0 3,0 4,-1 2,0 4,0 6,0 3,0 5,0 6,0 2,1 3,1 4,1 1,1 2,1 2,2 1,1 1,1 1,2l0 57 46 0 0 -57c0,-1 0,-1 1,-2 0,-1 1,-1 2,-2 1,0 2,0 3,-1 2,0 4,0 7,0 2,0 4,0 5,0 2,1 3,1 4,1 1,1 2,1 2,2 1,1 1,1 1,2l0 147z"/>
  <path id="8" class="fil2" d="M1632 1272c0,8 -1,13 -3,15 -3,3 -6,4 -12,4 -5,0 -9,-1 -11,-4 -2,-2 -3,-7 -3,-14 0,-8 1,-13 3,-15 2,-3 6,-4 12,-4 5,0 9,1 11,4 2,2 3,7 3,14z"/>
  <path id="9" class="fil2" d="M1682 1285c0,1 0,2 0,2 -1,1 -2,2 -2,2 -1,0 -3,1 -4,1 -2,0 -4,0 -6,0 -3,0 -5,0 -6,0 -2,0 -3,-1 -4,-1 -1,0 -2,-1 -2,-2 -1,0 -1,-1 -1,-2l0 -147c0,-1 0,-1 1,-2 0,-1 1,-1 2,-2 1,0 2,0 4,-1 1,0 3,0 6,0 2,0 4,0 6,0 1,1 3,1 4,1 0,1 1,1 2,2 0,1 0,1 0,2l0 147z"/>
  <path id="10" class="fil2" d="M1820 1210c0,13 -1,24 -4,35 -2,10 -6,18 -11,25 -5,8 -11,13 -19,17 -7,3 -16,5 -26,5 -9,0 -17,-1 -25,-4 -7,-4 -13,-8 -18,-15 -4,-6 -8,-15 -10,-25 -3,-10 -4,-22 -4,-35 0,-13 1,-24 4,-34 3,-10 6,-19 11,-26 5,-7 12,-13 19,-16 7,-4 16,-6 26,-6 9,0 17,2 25,5 7,3 13,8 17,14 5,7 9,15 11,25 3,10 4,21 4,35zm-26 1c0,-8 -1,-15 -2,-22 -1,-7 -3,-12 -5,-17 -3,-5 -6,-9 -10,-11 -4,-3 -9,-4 -15,-4 -6,0 -11,1 -15,4 -5,3 -8,7 -11,12 -2,5 -4,11 -5,17 -1,7 -1,14 -1,21 0,9 0,16 1,23 1,7 3,13 5,17 3,5 6,9 10,11 4,3 9,4 15,4 6,0 12,-1 16,-4 4,-3 7,-7 10,-12 2,-5 4,-11 5,-17 1,-7 2,-14 2,-22z"/>
  <path id="11" class="fil3 str5" d="M791 1243c0,8 -2,15 -4,21 -2,7 -6,12 -10,16 -4,4 -9,7 -14,9 -6,2 -12,3 -18,3 -4,0 -8,0 -12,-1 -4,-1 -7,-2 -10,-3 -2,-2 -5,-3 -7,-4 -1,-2 -3,-3 -4,-4 0,-1 -1,-2 -1,-4 -1,-2 -1,-5 -1,-9 0,-2 0,-4 0,-6 0,-2 1,-3 1,-4 0,-1 1,-2 1,-2 0,-1 1,-1 2,-1 1,0 2,1 3,2 2,1 4,3 7,4 2,2 5,3 9,5 3,1 7,2 12,2 3,0 6,-1 8,-2 3,-1 5,-2 7,-4 1,-1 2,-3 3,-6 1,-2 2,-5 2,-8 0,-4 -1,-7 -3,-9 -1,-3 -3,-5 -6,-7 -2,-2 -5,-4 -8,-5 -3,-2 -6,-4 -10,-6 -3,-2 -6,-4 -9,-6 -3,-3 -6,-6 -9,-9 -2,-4 -4,-8 -6,-12 -1,-5 -2,-11 -2,-17 0,-7 1,-14 3,-20 3,-5 6,-10 9,-14 4,-4 8,-6 13,-8 6,-2 11,-3 17,-3 2,0 5,0 8,1 3,0 6,1 8,2 3,1 5,2 7,3 2,2 4,3 4,3 1,1 1,2 1,3 1,0 1,1 1,2 0,1 0,2 0,3 0,2 0,3 0,5 0,3 0,5 0,6 0,2 0,3 0,4 0,1 -1,2 -1,3 -1,0 -1,0 -2,0 0,0 -2,0 -3,-1 -2,-1 -4,-3 -6,-4 -2,-1 -5,-3 -7,-4 -3,-1 -7,-1 -10,-1 -3,0 -5,0 -7,1 -2,1 -4,2 -5,3 -2,2 -3,4 -3,6 -1,2 -1,4 -1,6 0,4 0,7 2,9 1,3 3,5 6,7 2,2 5,4 8,6 4,1 7,3 10,5 3,2 7,4 10,7 3,2 6,5 8,9 3,3 5,7 6,12 2,4 3,10 3,16z"/>
  <path id="12" class="fil3 str5" d="M932 1304c0,3 0,6 0,7 0,2 -1,3 -1,4 0,1 -1,2 -1,2 -1,1 -1,1 -2,1 -2,0 -4,-1 -8,-2 -3,-2 -7,-4 -11,-7 -4,-2 -8,-6 -12,-10 -4,-3 -8,-8 -11,-13 -3,2 -7,3 -11,4 -4,2 -9,2 -14,2 -9,0 -18,-1 -25,-4 -7,-3 -13,-8 -18,-15 -5,-6 -8,-14 -11,-25 -2,-10 -3,-22 -3,-35 0,-13 1,-24 4,-34 2,-11 6,-19 11,-26 5,-7 11,-13 19,-16 7,-4 16,-6 25,-6 10,0 18,2 25,5 7,3 13,8 18,14 5,7 8,15 11,25 2,9 4,21 4,35 0,7 -1,13 -2,19 0,6 -1,12 -3,17 -1,6 -3,10 -5,15 -2,4 -4,8 -7,11 4,4 8,8 11,10 3,2 5,4 7,5 3,1 4,2 5,3 2,0 3,1 3,2 1,0 2,2 2,4 0,2 0,5 0,8zm-38 -93c0,-8 0,-15 -1,-22 -1,-7 -3,-12 -5,-17 -3,-5 -6,-9 -10,-11 -4,-3 -9,-4 -15,-4 -7,0 -12,1 -16,4 -4,3 -7,7 -10,12 -2,5 -4,11 -5,17 -1,7 -2,14 -2,21 0,8 1,16 2,23 1,7 2,13 5,17 2,5 6,9 10,11 4,3 9,4 15,4 6,0 11,-1 15,-4 4,-3 8,-7 10,-12 3,-5 5,-11 6,-17 1,-7 1,-14 1,-22z"/>
  <path id="13" class="fil3 str5" d="M1011 1276c0,3 0,5 0,6 0,2 0,3 -1,5 0,1 0,1 -1,2 0,0 -1,1 -1,1l-57 0c-2,0 -4,-1 -5,-3 -2,-1 -2,-4 -2,-7l0 -142c0,-1 0,-1 0,-2 1,-1 1,-1 2,-2 1,0 3,0 4,-1 2,0 4,0 6,0 3,0 5,0 6,0 2,1 3,1 4,1 1,1 2,1 2,2 1,1 1,1 1,2l0 125 39 0c0,0 1,1 1,1 1,1 1,1 1,2 1,1 1,3 1,4 0,2 0,4 0,6z"/>
  <path id="14" class="fil3 str5" d="M1145 1282c0,1 -1,3 -2,4 0,1 -1,2 -3,3 -1,0 -3,1 -5,1 -2,0 -4,0 -8,0 -3,0 -6,0 -8,0 -3,0 -4,-1 -6,-1 -1,-1 -2,-2 -2,-3 -1,-1 -1,-3 -2,-4l-19 -99 -1 0 -18 99c-1,1 -1,3 -2,4 0,1 -1,2 -2,3 -2,0 -3,1 -5,1 -3,0 -5,0 -9,0 -4,0 -6,0 -9,0 -2,0 -4,-1 -5,-1 -1,-1 -2,-2 -3,-3 0,-1 -1,-3 -1,-4l-28 -136c-1,-3 -1,-6 -1,-7 0,-2 0,-3 1,-4 1,-1 2,-1 4,-2 2,0 4,0 8,0 3,0 5,0 7,0 1,0 3,1 4,1 0,1 1,1 1,2 1,1 1,2 1,4l22 119 0 0 22 -119c1,-1 1,-2 1,-3 1,-1 2,-2 3,-3 0,0 2,0 4,-1 1,0 4,0 6,0 4,0 6,0 8,0 2,0 3,1 4,1 1,1 2,2 2,3 1,0 1,2 1,3l23 119 1 0 21 -119c0,-1 1,-2 1,-3 0,-1 1,-2 2,-3 1,0 2,0 3,-1 2,0 4,0 7,0 3,0 5,0 7,0 2,1 3,1 3,2 1,1 1,2 1,4 0,2 0,4 -1,7l-28 136z"/>
  <path id="15" class="fil3 str5" d="M1284 1278c1,3 1,5 1,7 1,1 0,3 0,3 -1,1 -2,2 -4,2 -2,0 -4,0 -7,0 -4,0 -6,0 -8,0 -2,0 -3,0 -4,-1 -1,0 -2,0 -2,-1 0,-1 -1,-2 -1,-3l-8 -31 -47 0 -7 31c-1,1 -1,2 -1,2 -1,1 -1,2 -2,2 -1,1 -3,1 -4,1 -2,0 -4,0 -7,0 -3,0 -5,0 -7,0 -1,0 -3,-1 -3,-2 -1,-1 -1,-2 -1,-4 0,-1 1,-4 2,-6l38 -139c0,-1 0,-2 1,-3 0,-1 1,-1 2,-2 1,0 3,-1 5,-1 2,0 4,0 8,0 3,0 6,0 9,0 2,0 4,1 5,1 1,1 2,1 3,2 0,1 1,2 1,4l38 138zm-57 -115l0 0 -17 67 35 0 -18 -67z"/>
  <path id="16" class="fil3 str5" d="M1368 1147c0,2 0,4 0,6 0,1 -1,3 -1,4 0,1 -1,1 -1,2 -1,0 -1,1 -2,1l-31 0 0 125c0,1 0,2 0,2 -1,1 -1,2 -2,2 -1,0 -2,1 -4,1 -2,0 -4,0 -6,0 -3,0 -5,0 -6,0 -2,0 -3,-1 -4,-1 -1,0 -2,-1 -2,-2 0,0 -1,-1 -1,-2l0 -125 -31 0c0,0 -1,-1 -1,-1 -1,-1 -1,-1 -1,-2 -1,-1 -1,-3 -1,-4 0,-2 0,-4 0,-6 0,-3 0,-5 0,-6 0,-2 0,-3 1,-4 0,-1 0,-2 1,-3 0,0 1,0 1,0l87 0c1,0 1,0 2,0 0,1 1,2 1,3 0,1 1,2 1,4 0,1 0,3 0,6z"/>
  <path id="17" class="fil3 str5" d="M1464 1266c0,2 0,4 0,5 -1,2 -1,3 -1,4 0,1 0,2 -1,2 0,1 0,2 -1,3 -1,1 -2,2 -4,3 -2,2 -5,3 -8,5 -2,1 -6,2 -9,3 -4,1 -8,1 -12,1 -9,0 -17,-2 -23,-5 -7,-3 -13,-8 -18,-15 -4,-6 -8,-14 -11,-24 -2,-10 -3,-21 -3,-34 0,-13 1,-25 4,-36 3,-10 6,-18 11,-25 5,-7 11,-13 19,-16 7,-4 14,-6 23,-6 3,0 6,1 10,1 3,1 6,2 8,3 3,1 6,3 8,4 2,2 3,3 4,4 1,1 2,2 2,3 0,1 1,2 1,3 0,1 0,2 0,4 0,1 0,3 0,5 0,3 0,5 0,6 0,2 0,3 -1,5 0,1 0,1 -1,2 0,0 -1,1 -1,1 -1,0 -2,-1 -4,-3 -1,-1 -3,-3 -5,-4 -3,-2 -6,-4 -9,-5 -3,-1 -7,-2 -11,-2 -5,0 -9,1 -13,4 -4,2 -7,6 -10,11 -3,4 -5,10 -6,17 -2,6 -2,14 -2,22 0,9 0,17 2,24 1,6 4,12 6,16 3,5 6,8 10,10 4,2 9,3 13,3 5,0 9,0 12,-2 3,-1 6,-3 8,-4 3,-2 5,-3 6,-4 2,-2 3,-2 3,-2 1,0 2,0 2,0 0,0 1,1 1,2 0,1 0,2 1,4 0,2 0,4 0,7z"/>
  <path id="18" class="fil3 str5" d="M1578 1285c0,1 0,2 -1,2 0,1 -1,2 -2,2 -1,0 -2,1 -4,1 -1,0 -3,0 -5,0 -3,0 -5,0 -7,0 -1,0 -2,-1 -3,-1 -1,0 -2,-1 -2,-2 -1,0 -1,-1 -1,-2l0 -63 -46 0 0 63c0,1 0,2 -1,2 0,1 -1,2 -2,2 -1,0 -2,1 -4,1 -1,0 -3,0 -6,0 -2,0 -4,0 -6,0 -1,0 -3,-1 -4,-1 -1,0 -1,-1 -2,-2 0,0 0,-1 0,-2l0 -147c0,-1 0,-1 0,-2 1,-1 1,-1 2,-2 1,0 3,0 4,-1 2,0 4,0 6,0 3,0 5,0 6,0 2,1 3,1 4,1 1,1 2,1 2,2 1,1 1,1 1,2l0 57 46 0 0 -57c0,-1 0,-1 1,-2 0,-1 1,-1 2,-2 1,0 2,0 3,-1 2,0 4,0 7,0 2,0 4,0 5,0 2,1 3,1 4,1 1,1 2,1 2,2 1,1 1,1 1,2l0 147z"/>
  <path id="19" class="fil3 str5" d="M1632 1272c0,8 -1,13 -3,15 -3,3 -6,4 -12,4 -5,0 -9,-1 -11,-4 -2,-2 -3,-7 -3,-14 0,-8 1,-13 3,-15 2,-3 6,-4 12,-4 5,0 9,1 11,4 2,2 3,7 3,14z"/>
  <path id="20" class="fil3 str5" d="M1682 1285c0,1 0,2 0,2 -1,1 -2,2 -2,2 -1,0 -3,1 -4,1 -2,0 -4,0 -6,0 -3,0 -5,0 -6,0 -2,0 -3,-1 -4,-1 -1,0 -2,-1 -2,-2 -1,0 -1,-1 -1,-2l0 -147c0,-1 0,-1 1,-2 0,-1 1,-1 2,-2 1,0 2,0 4,-1 1,0 3,0 6,0 2,0 4,0 6,0 1,1 3,1 4,1 0,1 1,1 2,2 0,1 0,1 0,2l0 147z"/>
  <path id="21" class="fil3 str5" d="M1820 1210c0,13 -1,24 -4,35 -2,10 -6,18 -11,25 -5,8 -11,13 -19,17 -7,3 -16,5 -26,5 -9,0 -17,-1 -25,-4 -7,-4 -13,-8 -18,-15 -4,-6 -8,-15 -10,-25 -3,-10 -4,-22 -4,-35 0,-13 1,-24 4,-34 3,-10 6,-19 11,-26 5,-7 12,-13 19,-16 7,-4 16,-6 26,-6 9,0 17,2 25,5 7,3 13,8 17,14 5,7 9,15 11,25 3,10 4,21 4,35zm-26 1c0,-8 -1,-15 -2,-22 -1,-7 -3,-12 -5,-17 -3,-5 -6,-9 -10,-11 -4,-3 -9,-4 -15,-4 -6,0 -11,1 -15,4 -5,3 -8,7 -11,12 -2,5 -4,11 -5,17 -1,7 -1,14 -1,21 0,9 0,16 1,23 1,7 3,13 5,17 3,5 6,9 10,11 4,3 9,4 15,4 6,0 12,-1 16,-4 4,-3 7,-7 10,-12 2,-5 4,-11 5,-17 1,-7 2,-14 2,-22z"/>
  <path class="fil2" d="M791 1243c0,8 -2,15 -4,21 -2,7 -6,12 -10,16 -4,4 -9,7 -14,9 -6,2 -12,3 -18,3 -4,0 -8,0 -12,-1 -4,-1 -7,-2 -10,-3 -2,-2 -5,-3 -7,-4 -1,-2 -3,-3 -4,-4 0,-1 -1,-2 -1,-4 -1,-2 -1,-5 -1,-9 0,-2 0,-4 0,-6 0,-2 1,-3 1,-4 0,-1 1,-2 1,-2 0,-1 1,-1 2,-1 1,0 2,1 3,2 2,1 4,3 7,4 2,2 5,3 9,5 3,1 7,2 12,2 3,0 6,-1 8,-2 3,-1 5,-2 7,-4 1,-1 2,-3 3,-6 1,-2 2,-5 2,-8 0,-4 -1,-7 -3,-9 -1,-3 -3,-5 -6,-7 -2,-2 -5,-4 -8,-5 -3,-2 -6,-4 -10,-6 -3,-2 -6,-4 -9,-6 -3,-3 -6,-6 -9,-9 -2,-4 -4,-8 -6,-12 -1,-5 -2,-11 -2,-17 0,-7 1,-14 3,-20 3,-5 6,-10 9,-14 4,-4 8,-6 13,-8 6,-2 11,-3 17,-3 2,0 5,0 8,1 3,0 6,1 8,2 3,1 5,2 7,3 2,2 4,3 4,3 1,1 1,2 1,3 1,0 1,1 1,2 0,1 0,2 0,3 0,2 0,3 0,5 0,3 0,5 0,6 0,2 0,3 0,4 0,1 -1,2 -1,3 -1,0 -1,0 -2,0 0,0 -2,0 -3,-1 -2,-1 -4,-3 -6,-4 -2,-1 -5,-3 -7,-4 -3,-1 -7,-1 -10,-1 -3,0 -5,0 -7,1 -2,1 -4,2 -5,3 -2,2 -3,4 -3,6 -1,2 -1,4 -1,6 0,4 0,7 2,9 1,3 3,5 6,7 2,2 5,4 8,6 4,1 7,3 10,5 3,2 7,4 10,7 3,2 6,5 8,9 3,3 5,7 6,12 2,4 3,10 3,16z"/>
  <path id="1" class="fil2" d="M932 1304c0,3 0,6 0,7 0,2 -1,3 -1,4 0,1 -1,2 -1,2 -1,1 -1,1 -2,1 -2,0 -4,-1 -8,-2 -3,-2 -7,-4 -11,-7 -4,-2 -8,-6 -12,-10 -4,-3 -8,-8 -11,-13 -3,2 -7,3 -11,4 -4,2 -9,2 -14,2 -9,0 -18,-1 -25,-4 -7,-3 -13,-8 -18,-15 -5,-6 -8,-14 -11,-25 -2,-10 -3,-22 -3,-35 0,-13 1,-24 4,-34 2,-11 6,-19 11,-26 5,-7 11,-13 19,-16 7,-4 16,-6 25,-6 10,0 18,2 25,5 7,3 13,8 18,14 5,7 8,15 11,25 2,9 4,21 4,35 0,7 -1,13 -2,19 0,6 -1,12 -3,17 -1,6 -3,10 -5,15 -2,4 -4,8 -7,11 4,4 8,8 11,10 3,2 5,4 7,5 3,1 4,2 5,3 2,0 3,1 3,2 1,0 2,2 2,4 0,2 0,5 0,8zm-38 -93c0,-8 0,-15 -1,-22 -1,-7 -3,-12 -5,-17 -3,-5 -6,-9 -10,-11 -4,-3 -9,-4 -15,-4 -7,0 -12,1 -16,4 -4,3 -7,7 -10,12 -2,5 -4,11 -5,17 -1,7 -2,14 -2,21 0,8 1,16 2,23 1,7 2,13 5,17 2,5 6,9 10,11 4,3 9,4 15,4 6,0 11,-1 15,-4 4,-3 8,-7 10,-12 3,-5 5,-11 6,-17 1,-7 1,-14 1,-22z"/>
  <path id="2" class="fil2" d="M1011 1276c0,3 0,5 0,6 0,2 0,3 -1,5 0,1 0,1 -1,2 0,0 -1,1 -1,1l-57 0c-2,0 -4,-1 -5,-3 -2,-1 -2,-4 -2,-7l0 -142c0,-1 0,-1 0,-2 1,-1 1,-1 2,-2 1,0 3,0 4,-1 2,0 4,0 6,0 3,0 5,0 6,0 2,1 3,1 4,1 1,1 2,1 2,2 1,1 1,1 1,2l0 125 39 0c0,0 1,1 1,1 1,1 1,1 1,2 1,1 1,3 1,4 0,2 0,4 0,6z"/>
  <path id="3" class="fil2" d="M1145 1282c0,1 -1,3 -2,4 0,1 -1,2 -3,3 -1,0 -3,1 -5,1 -2,0 -4,0 -8,0 -3,0 -6,0 -8,0 -3,0 -4,-1 -6,-1 -1,-1 -2,-2 -2,-3 -1,-1 -1,-3 -2,-4l-19 -99 -1 0 -18 99c-1,1 -1,3 -2,4 0,1 -1,2 -2,3 -2,0 -3,1 -5,1 -3,0 -5,0 -9,0 -4,0 -6,0 -9,0 -2,0 -4,-1 -5,-1 -1,-1 -2,-2 -3,-3 0,-1 -1,-3 -1,-4l-28 -136c-1,-3 -1,-6 -1,-7 0,-2 0,-3 1,-4 1,-1 2,-1 4,-2 2,0 4,0 8,0 3,0 5,0 7,0 1,0 3,1 4,1 0,1 1,1 1,2 1,1 1,2 1,4l22 119 0 0 22 -119c1,-1 1,-2 1,-3 1,-1 2,-2 3,-3 0,0 2,0 4,-1 1,0 4,0 6,0 4,0 6,0 8,0 2,0 3,1 4,1 1,1 2,2 2,3 1,0 1,2 1,3l23 119 1 0 21 -119c0,-1 1,-2 1,-3 0,-1 1,-2 2,-3 1,0 2,0 3,-1 2,0 4,0 7,0 3,0 5,0 7,0 2,1 3,1 3,2 1,1 1,2 1,4 0,2 0,4 -1,7l-28 136z"/>
  <path id="4" class="fil2" d="M1284 1278c1,3 1,5 1,7 1,1 0,3 0,3 -1,1 -2,2 -4,2 -2,0 -4,0 -7,0 -4,0 -6,0 -8,0 -2,0 -3,0 -4,-1 -1,0 -2,0 -2,-1 0,-1 -1,-2 -1,-3l-8 -31 -47 0 -7 31c-1,1 -1,2 -1,2 -1,1 -1,2 -2,2 -1,1 -3,1 -4,1 -2,0 -4,0 -7,0 -3,0 -5,0 -7,0 -1,0 -3,-1 -3,-2 -1,-1 -1,-2 -1,-4 0,-1 1,-4 2,-6l38 -139c0,-1 0,-2 1,-3 0,-1 1,-1 2,-2 1,0 3,-1 5,-1 2,0 4,0 8,0 3,0 6,0 9,0 2,0 4,1 5,1 1,1 2,1 3,2 0,1 1,2 1,4l38 138zm-57 -115l0 0 -17 67 35 0 -18 -67z"/>
  <path id="5" class="fil2" d="M1368 1147c0,2 0,4 0,6 0,1 -1,3 -1,4 0,1 -1,1 -1,2 -1,0 -1,1 -2,1l-31 0 0 125c0,1 0,2 0,2 -1,1 -1,2 -2,2 -1,0 -2,1 -4,1 -2,0 -4,0 -6,0 -3,0 -5,0 -6,0 -2,0 -3,-1 -4,-1 -1,0 -2,-1 -2,-2 0,0 -1,-1 -1,-2l0 -125 -31 0c0,0 -1,-1 -1,-1 -1,-1 -1,-1 -1,-2 -1,-1 -1,-3 -1,-4 0,-2 0,-4 0,-6 0,-3 0,-5 0,-6 0,-2 0,-3 1,-4 0,-1 0,-2 1,-3 0,0 1,0 1,0l87 0c1,0 1,0 2,0 0,1 1,2 1,3 0,1 1,2 1,4 0,1 0,3 0,6z"/>
  <path id="6" class="fil2" d="M1464 1266c0,2 0,4 0,5 -1,2 -1,3 -1,4 0,1 0,2 -1,2 0,1 0,2 -1,3 -1,1 -2,2 -4,3 -2,2 -5,3 -8,5 -2,1 -6,2 -9,3 -4,1 -8,1 -12,1 -9,0 -17,-2 -23,-5 -7,-3 -13,-8 -18,-15 -4,-6 -8,-14 -11,-24 -2,-10 -3,-21 -3,-34 0,-13 1,-25 4,-36 3,-10 6,-18 11,-25 5,-7 11,-13 19,-16 7,-4 14,-6 23,-6 3,0 6,1 10,1 3,1 6,2 8,3 3,1 6,3 8,4 2,2 3,3 4,4 1,1 2,2 2,3 0,1 1,2 1,3 0,1 0,2 0,4 0,1 0,3 0,5 0,3 0,5 0,6 0,2 0,3 -1,5 0,1 0,1 -1,2 0,0 -1,1 -1,1 -1,0 -2,-1 -4,-3 -1,-1 -3,-3 -5,-4 -3,-2 -6,-4 -9,-5 -3,-1 -7,-2 -11,-2 -5,0 -9,1 -13,4 -4,2 -7,6 -10,11 -3,4 -5,10 -6,17 -2,6 -2,14 -2,22 0,9 0,17 2,24 1,6 4,12 6,16 3,5 6,8 10,10 4,2 9,3 13,3 5,0 9,0 12,-2 3,-1 6,-3 8,-4 3,-2 5,-3 6,-4 2,-2 3,-2 3,-2 1,0 2,0 2,0 0,0 1,1 1,2 0,1 0,2 1,4 0,2 0,4 0,7z"/>
  <path id="7" class="fil2" d="M1578 1285c0,1 0,2 -1,2 0,1 -1,2 -2,2 -1,0 -2,1 -4,1 -1,0 -3,0 -5,0 -3,0 -5,0 -7,0 -1,0 -2,-1 -3,-1 -1,0 -2,-1 -2,-2 -1,0 -1,-1 -1,-2l0 -63 -46 0 0 63c0,1 0,2 -1,2 0,1 -1,2 -2,2 -1,0 -2,1 -4,1 -1,0 -3,0 -6,0 -2,0 -4,0 -6,0 -1,0 -3,-1 -4,-1 -1,0 -1,-1 -2,-2 0,0 0,-1 0,-2l0 -147c0,-1 0,-1 0,-2 1,-1 1,-1 2,-2 1,0 3,0 4,-1 2,0 4,0 6,0 3,0 5,0 6,0 2,1 3,1 4,1 1,1 2,1 2,2 1,1 1,1 1,2l0 57 46 0 0 -57c0,-1 0,-1 1,-2 0,-1 1,-1 2,-2 1,0 2,0 3,-1 2,0 4,0 7,0 2,0 4,0 5,0 2,1 3,1 4,1 1,1 2,1 2,2 1,1 1,1 1,2l0 147z"/>
  <path id="8" class="fil2" d="M1632 1272c0,8 -1,13 -3,15 -3,3 -6,4 -12,4 -5,0 -9,-1 -11,-4 -2,-2 -3,-7 -3,-14 0,-8 1,-13 3,-15 2,-3 6,-4 12,-4 5,0 9,1 11,4 2,2 3,7 3,14z"/>
  <path id="9" class="fil2" d="M1682 1285c0,1 0,2 0,2 -1,1 -2,2 -2,2 -1,0 -3,1 -4,1 -2,0 -4,0 -6,0 -3,0 -5,0 -6,0 -2,0 -3,-1 -4,-1 -1,0 -2,-1 -2,-2 -1,0 -1,-1 -1,-2l0 -147c0,-1 0,-1 1,-2 0,-1 1,-1 2,-2 1,0 2,0 4,-1 1,0 3,0 6,0 2,0 4,0 6,0 1,1 3,1 4,1 0,1 1,1 2,2 0,1 0,1 0,2l0 147z"/>
  <path id="10" class="fil2" d="M1820 1210c0,13 -1,24 -4,35 -2,10 -6,18 -11,25 -5,8 -11,13 -19,17 -7,3 -16,5 -26,5 -9,0 -17,-1 -25,-4 -7,-4 -13,-8 -18,-15 -4,-6 -8,-15 -10,-25 -3,-10 -4,-22 -4,-35 0,-13 1,-24 4,-34 3,-10 6,-19 11,-26 5,-7 12,-13 19,-16 7,-4 16,-6 26,-6 9,0 17,2 25,5 7,3 13,8 17,14 5,7 9,15 11,25 3,10 4,21 4,35zm-26 1c0,-8 -1,-15 -2,-22 -1,-7 -3,-12 -5,-17 -3,-5 -6,-9 -10,-11 -4,-3 -9,-4 -15,-4 -6,0 -11,1 -15,4 -5,3 -8,7 -11,12 -2,5 -4,11 -5,17 -1,7 -1,14 -1,21 0,9 0,16 1,23 1,7 3,13 5,17 3,5 6,9 10,11 4,3 9,4 15,4 6,0 12,-1 16,-4 4,-3 7,-7 10,-12 2,-5 4,-11 5,-17 1,-7 2,-14 2,-22z"/>
  <path class="fil1 str5" d="M967 553c-76,9 -149,62 -182,132l-6 14 -23 0c-22,0 -23,0 -28,5l-5 6 0 76 0 76 5 5c5,6 6,6 28,6l23 0 6 14c28,58 84,107 147,125 131,37 267,-45 295,-179 8,-40 4,-93 -9,-126l-4 -10 51 0 50 0 -4 10c-7,20 -12,51 -12,79 0,58 18,108 57,153 30,37 81,67 129,77 105,22 215,-33 260,-129l6 -14 23 0c22,0 23,0 28,-6l5 -5 0 -76 0 -76 -5 -6c-5,-5 -6,-5 -28,-5l-23 0 -6 -14c-22,-46 -63,-88 -110,-110 -64,-32 -137,-32 -202,-1 -25,12 -36,19 -57,37l-15 14 -96 0 -96 0 -16 -14c-52,-46 -118,-67 -186,-58zm608 70c85,22 134,104 124,188 -10,97 -117,164 -209,138 -86,-25 -129,-100 -124,-186 6,-100 118,-163 209,-140l0 0zm-558 -5c67,9 121,55 142,121 4,14 5,21 5,46 0,33 -3,47 -15,73 -22,46 -64,81 -115,92 -21,6 -56,5 -78,-1 -61,-16 -108,-63 -123,-124 -5,-20 -5,-59 0,-78 17,-68 74,-120 144,-129 19,-2 20,-2 40,0z"/>
  <path class="fil1 str6" d="M967 553c-76,9 -149,62 -182,132l-6 14 -23 0c-22,0 -23,0 -28,5l-5 6 0 76 0 76 5 5c5,6 6,6 28,6l23 0 6 14c28,58 84,107 147,125 131,37 267,-45 295,-179 8,-40 4,-93 -9,-126l-4 -10 51 0 50 0 -4 10c-7,20 -12,51 -12,79 0,58 18,108 57,153 30,37 81,67 129,77 105,22 215,-33 260,-129l6 -14 23 0c22,0 23,0 28,-6l5 -5 0 -76 0 -76 -5 -6c-5,-5 -6,-5 -28,-5l-23 0 -6 -14c-22,-46 -63,-88 -110,-110 -64,-32 -137,-32 -202,-1 -25,12 -36,19 -57,37l-15 14 -96 0 -96 0 -16 -14c-52,-46 -118,-67 -186,-58zm608 70c85,22 134,104 124,188 -10,97 -117,164 -209,138 -86,-25 -129,-100 -124,-186 6,-100 118,-163 209,-140l0 0zm-558 -5c67,9 121,55 142,121 4,14 5,21 5,46 0,33 -3,47 -15,73 -22,46 -64,81 -115,92 -21,6 -56,5 -78,-1 -61,-16 -108,-63 -123,-124 -5,-20 -5,-59 0,-78 17,-68 74,-120 144,-129 19,-2 20,-2 40,0z"/>
  <rect class="fil4" x="-1976" y="-1737" width="4918" height="831"/>
  <path class="fil1" d="M-1625 -1069l0 31c0,3 1,5 2,7 16,69 158,121 336,121 177,0 319,-52 335,-121 1,-2 2,-4 2,-7l0 -31c-22,7 -46,10 -70,10 -44,0 -85,-11 -120,-31 -44,6 -93,10 -147,10 -55,0 -105,-4 -148,-10 -35,20 -76,31 -120,31 -24,0 -48,-3 -70,-10zm673 -545c-15,-61 -131,-121 -335,-121 -204,0 -320,60 -336,121 -1,2 -2,4 -2,6l0 8 0 25c9,10 24,21 44,30 8,-1 17,-1 26,-1 53,0 101,16 141,44 39,5 81,8 127,8 42,0 82,-3 119,-7 41,-31 93,-49 148,-49 11,0 22,0 33,2 16,-9 29,-18 37,-27l0 -25 0 -8c0,-2 -1,-4 -2,-6zm-673 170l0 21 0 7 0 7 0 18c29,32 112,63 226,75 -6,-81 -73,-144 -156,-144 -25,0 -49,6 -70,16zm314 134c2,0 3,0 5,0 6,0 12,0 19,0 6,0 12,0 18,0l3 0c1,-24 5,-48 12,-69l-69 0c7,21 11,45 12,69zm137 -6c113,-12 195,-43 224,-75l0 -18 0 -7 0 -7 0 -19c-21,-11 -45,-17 -70,-17 -81,0 -148,63 -154,143zm-89 50c-8,0 -16,0 -24,0 -9,0 -18,0 -27,0 -8,53 -33,101 -70,138 30,2 63,4 97,4 33,0 65,-2 96,-4 -38,-37 -63,-84 -72,-138zm-139 -6c-63,-6 -115,-18 -156,-33 -26,-9 -49,-20 -67,-33l0 101 0 7 0 7 0 18c18,19 54,38 106,53 58,-14 104,-61 117,-120zm349 119c50,-15 86,-33 103,-52l0 -18 0 -7 0 -7 0 -101c-18,13 -41,24 -68,33 -40,15 -91,27 -153,33 13,59 59,106 118,119z"/>
  <path class="fil2" d="M-267 -1244c0,20 -3,38 -10,54 -8,16 -18,30 -30,41 -13,11 -28,19 -45,25 -17,5 -36,8 -56,8 -14,0 -26,-1 -38,-3 -12,-3 -23,-6 -32,-10 -9,-3 -17,-7 -23,-11 -7,-4 -11,-7 -14,-10 -2,-2 -4,-6 -5,-10 -1,-4 -2,-10 -2,-17 0,-4 0,-9 1,-12 0,-3 1,-6 2,-8 1,-2 2,-3 3,-4 1,-1 3,-1 4,-1 3,0 8,2 13,6 6,4 13,8 21,12 9,5 19,9 31,13 12,4 26,6 42,6 12,0 23,-2 33,-6 10,-3 18,-8 25,-14 8,-6 13,-13 17,-22 4,-9 6,-20 6,-31 0,-12 -3,-23 -8,-32 -6,-8 -13,-16 -21,-23 -9,-6 -19,-12 -30,-18 -12,-5 -23,-11 -35,-17 -12,-5 -23,-12 -34,-19 -11,-7 -21,-15 -30,-24 -9,-10 -16,-21 -21,-34 -6,-12 -8,-27 -8,-45 0,-18 3,-35 9,-49 6,-14 15,-26 26,-36 12,-9 25,-17 40,-22 16,-5 32,-7 50,-7 10,0 19,1 28,2 9,2 18,4 26,7 8,3 16,6 22,10 7,3 11,6 13,8 2,2 3,4 4,5 1,1 1,3 1,5 1,2 1,4 1,7 1,2 1,6 1,10 0,4 0,8 -1,11 0,3 -1,6 -1,8 -1,2 -2,4 -3,5 -1,1 -2,1 -4,1 -2,0 -6,-2 -11,-5 -5,-3 -11,-6 -18,-10 -8,-4 -16,-8 -26,-11 -10,-3 -21,-5 -34,-5 -11,0 -21,2 -30,5 -8,3 -15,7 -21,13 -5,5 -10,12 -12,19 -3,7 -5,15 -5,24 0,12 3,22 8,31 6,9 13,16 22,23 9,7 19,13 30,19 11,5 23,11 35,17 11,5 23,12 34,18 12,7 22,15 31,25 9,9 16,20 21,33 6,12 8,27 8,45z"/>
  <path id="1" class="fil2" d="M173 -1084c0,5 0,10 -1,13 -1,4 -1,6 -2,8 -1,2 -3,3 -4,4 -1,1 -3,1 -4,1 -4,0 -11,-2 -20,-5 -10,-4 -21,-9 -33,-17 -13,-7 -26,-15 -40,-25 -14,-10 -28,-22 -41,-36 -11,7 -24,13 -40,18 -16,5 -35,7 -56,7 -31,0 -58,-5 -80,-14 -23,-10 -42,-24 -57,-43 -15,-18 -26,-41 -33,-69 -7,-28 -11,-60 -11,-96 0,-34 4,-65 12,-93 8,-28 20,-52 35,-72 16,-19 36,-35 60,-45 23,-11 51,-16 83,-16 29,0 55,5 78,14 22,10 41,24 57,42 15,19 26,42 34,69 8,27 12,58 12,94 0,18 -1,35 -3,52 -2,16 -6,32 -10,47 -4,15 -10,28 -17,41 -6,13 -14,24 -23,34 16,13 29,24 41,32 12,7 22,13 29,17 8,3 14,6 18,8 5,2 8,3 10,6 2,2 4,5 4,9 1,4 2,9 2,15zm-109 -257c0,-25 -2,-48 -6,-69 -4,-21 -11,-39 -21,-55 -10,-16 -23,-28 -39,-36 -16,-9 -36,-14 -60,-14 -24,0 -44,5 -61,14 -16,10 -29,22 -39,38 -10,16 -18,34 -22,55 -4,21 -7,43 -7,66 0,26 2,49 7,71 4,21 10,40 20,55 10,16 23,28 39,37 16,8 36,13 60,13 25,0 45,-5 61,-14 17,-10 30,-22 40,-38 10,-16 17,-35 21,-56 5,-22 7,-44 7,-67z"/>
  <path id="2" class="fil2" d="M394 -1147c0,4 0,8 -1,11 0,3 -1,6 -2,8 -1,2 -2,3 -3,5 -2,1 -3,1 -5,1l-184 0c-4,0 -9,-2 -14,-5 -4,-4 -6,-10 -6,-19l0 -403c0,-2 0,-4 1,-5 1,-1 3,-2 5,-3 2,-1 5,-2 8,-2 4,-1 8,-1 13,-1 6,0 10,0 14,1 3,0 6,1 8,2 2,1 4,2 5,3 1,1 1,3 1,5l0 377 149 0c2,0 3,0 5,1 1,1 2,3 3,4 1,2 2,5 2,8 1,3 1,7 1,12z"/>
  <path id="3" class="fil2" d="M777 -1135c-1,3 -3,6 -4,8 -2,2 -4,3 -7,4 -3,1 -7,2 -11,2 -5,1 -10,1 -17,1 -6,0 -12,0 -16,-1 -5,0 -9,-1 -12,-2 -3,-1 -5,-2 -6,-4 -2,-2 -3,-5 -4,-8l-87 -329 0 0 -80 329c-1,3 -2,6 -4,8 -1,2 -3,3 -6,4 -3,1 -6,2 -11,2 -4,1 -10,1 -17,1 -7,0 -13,0 -17,-1 -5,0 -9,-1 -12,-2 -3,-1 -5,-2 -7,-4 -1,-2 -2,-5 -3,-8l-110 -403c-1,-5 -1,-9 -2,-12 0,-3 1,-5 3,-6 2,-2 5,-3 9,-3 4,-1 9,-1 16,-1 7,0 12,0 16,0 4,1 7,1 9,2 2,1 3,2 4,4 1,1 1,4 2,6l93 365 0 0 88 -364c1,-3 2,-5 3,-7 1,-1 2,-3 4,-3 3,-1 6,-2 10,-2 4,-1 9,-1 15,-1 6,0 11,0 14,1 4,0 7,1 9,2 2,0 4,2 5,3 0,2 1,4 2,7l95 364 1 0 91 -365c1,-2 1,-4 2,-6 1,-1 2,-3 4,-3 2,-1 5,-2 9,-2 3,-1 8,-1 14,-1 7,0 12,0 16,1 3,0 6,1 8,3 1,2 2,4 2,7 0,3 -1,7 -2,12l-109 402z"/>
  <path id="4" class="fil2" d="M1207 -1142c1,4 2,8 3,11 0,3 -1,6 -3,7 -2,2 -4,3 -8,3 -4,1 -10,1 -16,1 -7,0 -12,0 -16,0 -4,-1 -7,-1 -9,-2 -2,-1 -4,-2 -5,-3 -1,-2 -1,-3 -2,-5l-36 -107 -172 0 -34 105c-1,2 -2,4 -3,6 -1,1 -2,2 -4,3 -2,1 -5,2 -9,2 -4,1 -8,1 -14,1 -7,0 -12,0 -16,-1 -4,0 -6,-1 -8,-3 -2,-2 -2,-4 -2,-7 0,-3 1,-7 2,-12l139 -405c1,-2 2,-5 4,-6 1,-2 3,-3 6,-4 3,-1 6,-1 10,-2 4,0 10,0 16,0 7,0 12,0 17,0 4,1 8,1 11,2 3,1 5,3 6,4 2,2 3,4 4,6l139 406zm-179 -358l0 0 -71 217 144 0 -73 -217z"/>
  <path id="5" class="fil2" d="M1447 -1533c0,4 0,8 0,11 -1,3 -1,5 -2,7 -1,2 -2,4 -4,5 -1,0 -3,1 -4,1l-117 0 0 378c0,2 0,4 -1,5 -1,1 -2,2 -5,3 -2,1 -5,2 -8,2 -4,1 -8,1 -13,1 -6,0 -10,0 -14,-1 -3,0 -6,-1 -8,-2 -2,-1 -4,-2 -5,-3 -1,-1 -1,-3 -1,-5l0 -378 -116 0c-2,0 -4,-1 -5,-1 -1,-1 -2,-3 -3,-5 -1,-2 -2,-4 -2,-7 -1,-3 -1,-7 -1,-11 0,-4 0,-8 1,-11 0,-4 1,-6 2,-8 1,-2 2,-4 3,-5 1,-1 3,-1 5,-1l288 0c1,0 3,0 4,1 2,1 3,3 4,5 1,2 1,4 2,8 0,3 0,7 0,11z"/>
  <path id="6" class="fil2" d="M1734 -1183c0,3 -1,6 -1,9 0,3 0,5 -1,7 0,2 -1,4 -2,5 -1,2 -2,4 -4,6 -3,2 -7,6 -14,10 -7,5 -15,10 -25,14 -11,4 -22,8 -35,11 -14,3 -28,5 -43,5 -27,0 -52,-5 -73,-15 -22,-9 -41,-23 -56,-41 -15,-19 -27,-42 -35,-69 -8,-27 -12,-58 -12,-93 0,-36 4,-69 13,-97 9,-28 21,-52 37,-72 16,-20 35,-35 58,-45 22,-10 47,-16 74,-16 12,0 24,2 35,4 11,2 22,5 32,9 9,3 18,7 25,12 8,5 13,9 16,12 3,3 5,5 5,7 1,1 2,3 3,5 0,2 0,5 1,8 0,3 0,6 0,10 0,5 0,9 0,12 -1,3 -1,6 -2,8 -1,2 -2,3 -3,4 -2,1 -3,2 -5,2 -3,0 -7,-2 -12,-7 -6,-4 -13,-9 -21,-14 -9,-5 -19,-10 -31,-15 -12,-4 -27,-6 -44,-6 -18,0 -35,4 -50,11 -16,8 -29,20 -39,35 -11,15 -19,33 -25,55 -6,22 -9,46 -9,74 0,28 3,52 8,74 6,21 14,39 25,53 11,14 24,25 39,33 16,7 33,10 53,10 16,0 31,-2 43,-6 12,-4 23,-9 31,-14 9,-6 16,-10 22,-14 6,-5 10,-7 13,-7 2,0 3,0 4,1 1,1 2,2 3,4 0,2 1,4 1,8 0,3 1,7 1,13z"/>
  <path id="7" class="fil2" d="M2068 -1131c0,2 -1,4 -1,5 -1,1 -3,2 -5,3 -2,1 -5,2 -8,2 -4,1 -8,1 -13,1 -6,0 -11,0 -14,-1 -4,0 -6,-1 -8,-2 -3,-1 -4,-2 -5,-3 -1,-1 -1,-3 -1,-5l0 -193 -188 0 0 193c0,2 -1,4 -2,5 -1,1 -2,2 -4,3 -2,1 -5,2 -9,2 -3,1 -8,1 -13,1 -5,0 -10,0 -13,-1 -4,0 -7,-1 -9,-2 -2,-1 -3,-2 -4,-3 -1,-1 -2,-3 -2,-5l0 -418c0,-2 1,-4 2,-5 1,-1 2,-2 4,-3 2,-1 5,-2 9,-2 3,-1 8,-1 13,-1 5,0 10,0 13,1 4,0 7,1 9,2 2,1 3,2 4,3 1,1 2,3 2,5l0 174 188 0 0 -174c0,-2 0,-4 1,-5 1,-1 2,-2 5,-3 2,-1 4,-2 8,-2 3,-1 8,-1 14,-1 5,0 9,0 13,1 3,0 6,1 8,2 2,1 4,2 5,3 0,1 1,3 1,5l0 418z"/>
  <path id="8" class="fil2" d="M2203 -1159c0,16 -2,27 -7,32 -5,5 -14,8 -28,8 -12,0 -21,-3 -26,-8 -5,-5 -8,-16 -8,-31 0,-16 3,-27 8,-32 5,-5 14,-8 27,-8 13,0 22,3 27,8 5,5 7,15 7,31z"/>
  <path id="9" class="fil2" d="M2325 -1131c0,2 -1,4 -2,5 -1,1 -2,2 -4,3 -2,1 -5,2 -9,2 -3,1 -8,1 -13,1 -5,0 -9,0 -13,-1 -4,0 -7,-1 -9,-2 -2,-1 -3,-2 -4,-3 -1,-1 -1,-3 -1,-5l0 -418c0,-2 0,-4 1,-5 1,-1 3,-2 5,-3 2,-1 5,-2 8,-2 4,-1 8,-1 13,-1 5,0 10,0 13,1 4,0 7,1 9,2 2,1 3,2 4,3 1,1 2,3 2,5l0 418z"/>
  <path id="10" class="fil2" d="M2745 -1345c0,35 -4,67 -12,95 -8,29 -20,53 -36,72 -15,20 -35,36 -59,46 -23,11 -51,16 -83,16 -31,0 -58,-5 -80,-14 -23,-10 -42,-24 -57,-43 -15,-19 -26,-42 -33,-69 -7,-28 -11,-60 -11,-96 0,-34 4,-65 12,-93 8,-28 20,-52 36,-72 15,-19 35,-35 59,-45 23,-11 51,-16 83,-16 30,0 57,5 79,14 23,10 42,24 57,42 15,19 26,42 34,69 7,27 11,59 11,94zm-59 4c0,-25 -2,-48 -6,-69 -4,-21 -11,-39 -21,-55 -9,-16 -22,-28 -38,-36 -17,-9 -37,-14 -61,-14 -24,0 -44,5 -60,15 -16,9 -29,22 -39,37 -10,16 -18,34 -22,55 -4,21 -6,43 -6,66 0,26 2,49 6,71 4,21 10,40 20,56 10,15 22,27 39,36 16,8 36,13 60,13 24,0 44,-5 61,-14 16,-10 30,-22 40,-38 10,-16 17,-35 21,-56 4,-21 6,-43 6,-67z"/>
 </g>
 <g id="Layer_x0020_2" visibility="hidden">
  <metadata id="CorelCorpID_1Corel-Layer"/>
  <path class="fil5 str0" d="M-1383 -1475l186 0c45,-47 108,-75 177,-75 102,0 190,62 227,150l31 0c16,0 30,13 30,30l0 139c0,16 -14,29 -30,29l-34 0c-39,85 -125,143 -224,143 -136,0 -246,-110 -246,-245 0,-27 4,-52 12,-75l-69 0c8,24 12,50 12,77 0,134 -109,243 -244,243 -99,0 -184,-59 -223,-144l-34 0c-16,0 -30,-13 -30,-29l0 -139c0,-17 14,-30 30,-30l34 0c38,-86 123,-145 223,-145 67,0 128,27 172,71zm-172 15c86,0 156,69 156,156 0,86 -70,156 -156,156 -86,0 -156,-70 -156,-156 0,-87 70,-156 156,-156zm535 1c86,0 155,69 155,155 0,85 -69,154 -155,154 -85,0 -154,-69 -154,-154 0,-86 69,-155 154,-155z"/>
 </g>
 <g id="Layer_x0020_3" visibility="hidden">
  <metadata id="CorelCorpID_2Corel-Layer"/>
  <path class="fil6 str7" d="M-1584 -1534c-76,9 -149,62 -182,132l-6 14 -23 0c-22,0 -23,0 -28,6l-5 5 0 76 0 76 5 5c5,6 6,6 28,6l23 0 6 14c28,58 84,107 147,125 131,37 267,-45 295,-179 8,-39 4,-93 -9,-126l-4 -10 51 0 50 0 -4 10c-7,20 -12,52 -12,79 0,58 18,108 57,154 30,36 81,66 129,76 105,22 215,-33 260,-129l6 -14 23 0c22,0 23,0 28,-6l5 -5 0 -76 0 -76 -5 -6c-5,-5 -6,-5 -28,-5l-23 0 -6 -14c-22,-46 -63,-88 -110,-110 -64,-31 -137,-32 -202,-1 -25,12 -36,19 -57,37l-15 14 -96 0 -96 0 -16 -14c-52,-46 -118,-67 -186,-58zm608 70c85,22 134,104 124,189 -10,96 -117,163 -209,137 -86,-24 -129,-100 -124,-186 6,-100 118,-163 209,-140l0 0zm-558 -4c67,8 121,54 142,120 4,14 5,21 5,46 0,34 -3,47 -15,73 -22,47 -64,81 -115,93 -21,5 -56,4 -78,-2 -61,-16 -108,-63 -123,-124 -5,-20 -5,-59 0,-78 17,-68 74,-120 144,-128 19,-3 20,-3 40,0z"/>
 </g>
 <g id="Layer_x0020_4">
  <metadata id="CorelCorpID_3Corel-Layer"/>
  <path class="fil6" d="M-1018 -1526c98,0 181,62 212,150l41 0c5,0 10,4 10,10l0 131c0,5 -5,10 -10,10l-42 0c-31,86 -114,148 -211,148 -124,0 -224,-101 -224,-225 0,-36 8,-71 24,-101l-136 0c16,31 24,65 24,102 0,124 -100,224 -224,224 -98,0 -181,-62 -212,-149l-42 0c-5,0 -10,-4 -10,-10l0 -131c0,-5 5,-10 10,-10l42 0c31,-87 114,-149 212,-149 67,0 127,30 168,76l198 0 0 1c41,-47 102,-77 170,-77zm-536 44c99,0 179,81 179,180 0,99 -80,180 -179,180 -99,0 -180,-81 -180,-180 0,-99 81,-180 180,-180zm536 0c99,0 180,81 180,180 0,99 -81,180 -180,180 -99,0 -179,-81 -179,-180 0,-99 80,-180 179,-180z"/>
  <path class="fil7" d="M-1625 -2769l0 31c0,3 0,5 1,7 16,69 159,121 336,121 177,0 320,-52 336,-121 1,-2 2,-4 2,-7l0 -30c-22,6 -46,10 -70,10 -44,0 -85,-12 -120,-32 -44,6 -93,10 -148,10 -55,0 -104,-4 -147,-10 -36,20 -76,32 -120,32 -24,0 -48,-4 -70,-11zm673 -545c-15,-61 -132,-121 -336,-121 -203,0 -320,60 -335,121 -1,2 -2,4 -2,7l0 7 0 25c9,11 24,21 44,30 8,-1 17,-1 26,-1 52,0 101,16 141,45 38,4 81,7 126,7 43,0 83,-2 120,-7 41,-31 92,-49 148,-49 11,0 22,0 33,2 16,-9 29,-18 37,-27l0 -25 0 -7c0,-3 -1,-5 -2,-7zm-673 170l0 21 0 7 0 7 0 18c29,33 112,63 226,75 -6,-80 -74,-144 -156,-144 -25,0 -49,6 -70,16zm314 134c1,0 3,0 5,0 6,0 12,0 18,0 7,0 13,0 19,0l3 0c1,-24 5,-47 12,-69l-70 0c8,22 12,45 13,69zm137 -6c113,-12 195,-43 224,-75l0 -18 0 -7 0 -7 0 -19c-21,-11 -45,-17 -70,-17 -82,0 -148,63 -154,143zm-89 50c-8,0 -17,0 -25,0 -8,0 -17,0 -26,0 -8,54 -33,102 -70,138 30,3 62,4 96,4 34,0 66,-1 96,-4 -37,-36 -63,-84 -71,-138zm-140 -5c-62,-7 -114,-19 -155,-34 -27,-9 -50,-20 -67,-33l0 101 0 7 0 7 0 18c17,20 54,38 105,53 59,-14 105,-60 117,-119zm350 118c50,-15 86,-33 103,-52l0 -18 0 -7 0 -7 0 -101c-18,13 -41,24 -68,33 -40,15 -92,27 -153,33 13,60 59,106 118,119z"/>
  <path class="fil8" d="M-267 -2944c0,20 -4,38 -11,54 -7,16 -17,30 -29,41 -13,11 -28,19 -45,25 -18,6 -36,8 -56,8 -14,0 -27,-1 -39,-3 -11,-3 -22,-6 -31,-9 -10,-4 -17,-8 -24,-12 -6,-4 -10,-7 -13,-10 -2,-2 -4,-6 -5,-10 -2,-4 -2,-9 -2,-16 0,-5 0,-9 1,-13 0,-3 1,-5 1,-7 1,-3 2,-4 4,-5 1,0 2,-1 4,-1 3,0 7,2 13,6 5,4 12,8 21,12 8,5 19,9 31,13 12,4 26,6 42,6 12,0 23,-2 32,-5 10,-4 19,-8 26,-15 7,-6 13,-13 17,-22 3,-9 5,-19 5,-31 0,-12 -2,-23 -8,-31 -5,-9 -12,-17 -21,-24 -9,-6 -19,-12 -30,-18 -11,-5 -22,-11 -34,-17 -12,-5 -23,-12 -34,-19 -11,-7 -21,-15 -30,-24 -9,-10 -16,-21 -21,-33 -6,-13 -9,-28 -9,-46 0,-18 4,-34 10,-49 6,-14 15,-26 26,-35 11,-10 25,-17 40,-22 16,-6 32,-8 50,-8 9,0 19,1 28,2 9,2 18,4 26,7 8,3 16,6 22,10 6,3 11,6 13,8 2,2 3,4 4,5 0,1 1,3 1,5 1,2 1,4 1,7 0,3 0,6 0,10 0,4 0,8 0,11 0,3 -1,6 -2,8 0,2 -1,4 -2,5 -1,1 -3,1 -4,1 -3,0 -6,-1 -11,-4 -5,-4 -11,-7 -19,-11 -7,-4 -16,-8 -25,-11 -10,-3 -21,-5 -34,-5 -11,0 -21,2 -30,5 -9,3 -16,8 -21,13 -6,5 -10,12 -13,19 -2,8 -4,15 -4,24 0,12 3,22 8,31 6,9 13,16 21,23 9,7 19,13 31,19 11,5 23,11 35,17 11,6 23,12 34,19 11,6 21,15 30,24 9,9 16,20 22,33 5,13 8,27 8,45z"/>
  <path id="1" class="fil8" d="M173 -2784c0,6 -1,10 -1,13 -1,4 -2,7 -3,9 -1,1 -2,3 -3,3 -1,1 -3,1 -4,1 -4,0 -11,-1 -21,-5 -9,-4 -20,-9 -33,-16 -12,-7 -25,-16 -39,-26 -15,-10 -28,-22 -41,-36 -11,7 -24,13 -40,18 -16,5 -35,7 -56,7 -31,0 -58,-4 -81,-14 -23,-10 -41,-24 -56,-43 -15,-18 -26,-41 -33,-69 -8,-28 -11,-60 -11,-95 0,-35 4,-66 12,-94 8,-28 19,-52 35,-72 16,-19 36,-34 59,-45 24,-11 52,-16 83,-16 30,0 56,5 79,14 22,10 41,24 56,43 16,18 27,41 35,68 8,27 11,59 11,94 0,18 -1,35 -3,52 -2,17 -5,32 -9,47 -5,15 -10,29 -17,41 -6,13 -14,24 -23,34 15,14 29,24 41,32 12,7 21,13 29,17 8,4 14,6 18,8 4,2 8,4 10,6 2,2 3,5 4,9 1,4 2,9 2,15zm-109 -257c0,-25 -2,-48 -7,-69 -4,-21 -11,-39 -20,-55 -10,-15 -23,-28 -39,-36 -17,-9 -37,-13 -61,-13 -24,0 -44,4 -60,14 -16,9 -29,21 -40,37 -10,16 -17,34 -21,55 -5,21 -7,43 -7,66 0,26 2,50 6,71 4,21 11,40 21,56 9,15 22,27 38,36 16,9 37,13 61,13 24,0 45,-5 61,-14 16,-10 30,-22 40,-38 10,-16 17,-35 21,-56 4,-21 7,-44 7,-67z"/>
  <path id="2" class="fil8" d="M394 -2847c0,4 0,8 -1,11 0,3 -1,6 -2,8 -1,2 -2,4 -3,5 -2,1 -4,1 -5,1l-184 0c-5,0 -9,-2 -14,-5 -4,-4 -6,-10 -6,-18l0 -404c0,-2 0,-4 1,-5 1,-1 2,-2 4,-3 3,-1 5,-2 9,-2 4,-1 8,-1 13,-1 6,0 10,0 14,1 3,0 6,1 8,2 2,1 4,2 4,3 1,1 2,3 2,5l0 377 149 0c1,0 3,0 5,1 1,1 2,3 3,5 1,2 2,4 2,7 1,3 1,7 1,12z"/>
  <path id="3" class="fil8" d="M776 -2835c-1,4 -2,6 -3,8 -2,2 -5,3 -8,4 -3,1 -6,2 -11,3 -4,0 -9,0 -16,0 -6,0 -12,0 -17,0 -4,-1 -8,-2 -11,-3 -3,-1 -5,-2 -7,-4 -1,-2 -2,-4 -3,-8l-87 -329 -1 0 -80 329c0,4 -1,6 -3,8 -1,2 -4,3 -6,4 -3,1 -7,2 -11,3 -4,0 -10,0 -17,0 -7,0 -13,0 -18,0 -4,-1 -8,-2 -11,-3 -3,-1 -5,-2 -7,-4 -2,-2 -3,-4 -3,-8l-110 -402c-1,-6 -2,-10 -2,-12 0,-3 1,-6 3,-7 2,-2 4,-3 9,-3 4,-1 9,-1 16,-1 6,0 12,0 16,1 3,0 6,1 8,2 2,0 4,2 5,3 0,2 1,4 1,6l94 366 0 0 88 -365c1,-3 2,-5 3,-6 1,-2 2,-3 4,-4 2,-1 5,-2 9,-2 4,-1 9,-1 16,-1 6,0 11,0 14,1 4,0 7,1 9,2 2,1 3,2 4,4 1,1 2,3 3,6l95 365 0 0 92 -365c0,-3 1,-5 2,-6 0,-2 2,-3 4,-4 2,-1 5,-2 8,-2 4,-1 9,-1 15,-1 7,0 12,0 15,1 4,0 7,2 9,3 1,2 2,4 2,7 0,3 -1,7 -2,12l-110 402z"/>
  <path id="4" class="fil8" d="M1207 -2842c1,5 2,9 2,12 0,3 -1,5 -2,7 -2,1 -5,2 -9,3 -4,0 -9,0 -16,0 -6,0 -11,0 -15,0 -4,-1 -7,-1 -9,-2 -2,-1 -4,-2 -5,-3 -1,-2 -2,-3 -3,-5l-35 -106 -172 0 -34 104c-1,2 -2,4 -3,6 -1,1 -3,2 -5,3 -2,1 -5,2 -8,3 -4,0 -9,0 -15,0 -6,0 -11,0 -15,-1 -4,0 -7,-1 -8,-3 -2,-1 -3,-4 -3,-7 1,-3 1,-7 3,-12l139 -405c1,-2 2,-4 4,-6 1,-1 3,-3 6,-3 2,-1 6,-2 10,-2 4,-1 9,-1 16,-1 7,0 12,0 17,1 4,0 8,1 11,2 2,0 4,2 6,3 1,2 3,4 3,7l140 405zm-179 -358l0 0 -72 217 144 0 -72 -217z"/>
  <path id="5" class="fil8" d="M1447 -3233c0,4 0,8 -1,11 0,3 -1,6 -2,8 -1,1 -2,3 -3,4 -2,1 -3,1 -5,1l-116 0 0 378c0,2 -1,4 -1,5 -1,2 -3,3 -5,3 -2,1 -5,2 -8,2 -4,1 -8,1 -14,1 -5,0 -9,0 -13,-1 -3,0 -6,-1 -8,-2 -3,0 -4,-1 -5,-3 -1,-1 -1,-3 -1,-5l0 -378 -117 0c-1,0 -3,0 -4,-1 -2,-1 -3,-3 -4,-4 0,-2 -1,-5 -2,-8 0,-3 0,-7 0,-11 0,-4 0,-8 0,-11 1,-3 2,-6 2,-8 1,-2 2,-4 4,-4 1,-1 3,-2 4,-2l288 0c2,0 3,1 5,2 1,0 2,2 3,4 1,2 2,5 2,8 1,3 1,7 1,11z"/>
  <path id="6" class="fil8" d="M1733 -2883c0,3 0,6 0,9 0,3 -1,5 -1,7 -1,2 -1,4 -2,6 -1,1 -3,3 -5,5 -2,3 -6,6 -13,11 -7,4 -16,9 -26,13 -10,4 -21,8 -35,11 -13,3 -27,5 -43,5 -27,0 -51,-5 -73,-14 -21,-10 -40,-24 -55,-42 -15,-19 -27,-41 -35,-68 -9,-28 -13,-59 -13,-94 0,-36 5,-68 14,-97 8,-28 21,-52 37,-72 16,-20 35,-34 58,-45 22,-10 47,-15 74,-15 12,0 24,1 35,3 11,3 22,5 31,9 10,4 18,8 26,12 7,5 13,9 15,12 3,3 5,5 6,7 1,1 2,3 2,5 1,2 1,5 2,8 0,3 0,6 0,10 0,5 0,9 -1,12 0,3 -1,6 -2,8 0,2 -1,4 -3,5 -1,1 -2,1 -4,1 -3,0 -7,-2 -13,-6 -5,-5 -12,-10 -20,-15 -9,-5 -19,-10 -31,-14 -13,-5 -27,-7 -44,-7 -19,0 -35,4 -51,12 -15,7 -28,19 -38,34 -11,15 -20,33 -26,55 -5,22 -8,47 -8,74 0,28 2,53 8,74 6,21 14,39 25,53 10,15 23,25 39,33 15,7 33,11 52,11 17,0 31,-3 44,-7 12,-4 23,-9 31,-14 9,-5 16,-10 22,-14 5,-5 10,-7 13,-7 1,0 3,1 4,1 1,1 2,2 2,4 1,2 2,5 2,8 0,3 0,8 0,13z"/>
  <path id="7" class="fil8" d="M2068 -2831c0,2 -1,4 -2,5 -1,2 -2,3 -4,3 -2,1 -5,2 -9,2 -3,1 -8,1 -13,1 -5,0 -10,0 -13,-1 -4,0 -7,-1 -9,-2 -2,0 -3,-1 -4,-3 -1,-1 -2,-3 -2,-5l0 -193 -188 0 0 193c0,2 0,4 -1,5 -1,2 -2,3 -5,3 -2,1 -4,2 -8,2 -4,1 -8,1 -13,1 -5,0 -10,0 -13,-1 -4,0 -7,-1 -9,-2 -2,0 -4,-1 -5,-3 0,-1 -1,-3 -1,-5l0 -418c0,-2 1,-4 1,-5 1,-1 3,-2 5,-3 2,-1 5,-2 9,-2 3,-1 8,-1 13,-1 5,0 9,0 13,1 4,0 6,1 8,2 3,1 4,2 5,3 1,2 1,3 1,5l0 175 188 0 0 -175c0,-2 1,-3 2,-5 1,-1 2,-2 4,-3 2,-1 5,-2 9,-2 3,-1 8,-1 13,-1 5,0 10,0 13,1 4,0 7,1 9,2 2,1 3,2 4,3 1,1 2,3 2,5l0 418z"/>
  <path id="8" class="fil8" d="M2203 -2859c0,16 -2,27 -8,32 -5,5 -14,8 -27,8 -13,0 -22,-3 -27,-8 -4,-5 -7,-15 -7,-31 0,-16 3,-26 8,-32 5,-5 14,-8 27,-8 13,0 22,3 27,8 5,5 7,16 7,31z"/>
  <path id="9" class="fil8" d="M2588 -3046c0,37 -5,70 -14,99 -9,28 -22,51 -40,70 -18,18 -39,32 -65,41 -25,10 -56,14 -91,14l-88 0c-5,0 -10,-2 -14,-5 -5,-4 -7,-10 -7,-18l0 -389c0,-9 2,-15 7,-19 4,-3 9,-5 14,-5l94 0c36,0 66,5 91,15 24,10 45,24 62,42 17,18 29,40 38,67 9,26 13,55 13,88zm-58 2c0,-23 -2,-45 -8,-66 -6,-20 -14,-38 -26,-52 -12,-15 -27,-27 -45,-35 -18,-8 -42,-13 -70,-13l-57 0 0 340 57 0c27,0 49,-4 67,-11 18,-6 34,-17 46,-32 12,-14 21,-32 27,-54 6,-21 9,-47 9,-77z"/>
  <path id="10" class="fil8" d="M2983 -3045c0,35 -4,67 -12,95 -8,29 -20,53 -36,73 -15,19 -35,35 -59,45 -23,11 -51,16 -83,16 -31,0 -58,-4 -80,-14 -23,-10 -42,-24 -57,-43 -15,-18 -26,-42 -33,-69 -7,-28 -11,-60 -11,-95 0,-35 4,-66 12,-94 8,-28 20,-52 36,-72 15,-19 35,-34 59,-45 23,-11 51,-16 83,-16 30,0 57,5 79,14 23,10 42,24 57,43 15,18 26,41 34,68 7,28 11,59 11,94zm-59 4c0,-24 -2,-47 -6,-69 -4,-21 -11,-39 -21,-55 -9,-15 -22,-28 -39,-36 -16,-9 -36,-13 -60,-13 -24,0 -44,4 -60,14 -16,9 -29,22 -39,37 -10,16 -18,34 -22,55 -4,21 -7,43 -7,66 0,26 3,50 7,71 4,22 10,40 20,56 10,15 22,27 38,36 17,9 37,13 61,13 24,0 44,-5 61,-14 16,-10 29,-22 40,-38 9,-16 17,-35 21,-56 4,-21 6,-43 6,-67z"/>
  <path id="11" class="fil8" d="M3310 -2883c0,3 0,6 -1,9 0,3 0,5 -1,7 0,2 -1,4 -2,6 -1,1 -2,3 -4,5 -2,3 -7,6 -14,11 -7,4 -15,9 -25,13 -10,4 -22,8 -35,11 -13,3 -28,5 -43,5 -27,0 -52,-5 -73,-14 -22,-10 -40,-24 -56,-42 -15,-19 -27,-41 -35,-68 -8,-28 -12,-59 -12,-94 0,-36 4,-68 13,-97 9,-28 21,-52 37,-72 16,-20 36,-34 58,-45 22,-10 47,-15 74,-15 12,0 24,1 35,3 12,3 22,5 32,9 9,4 18,8 25,12 8,5 13,9 16,12 3,3 5,5 6,7 0,1 1,3 2,5 0,2 1,5 1,8 0,3 0,6 0,10 0,5 0,9 0,12 -1,3 -1,6 -2,8 -1,2 -2,4 -3,5 -1,1 -3,1 -5,1 -3,0 -7,-2 -12,-6 -6,-5 -12,-10 -21,-15 -9,-5 -19,-10 -31,-14 -12,-5 -27,-7 -44,-7 -18,0 -35,4 -50,12 -15,7 -28,19 -39,34 -11,15 -19,33 -25,55 -6,22 -9,47 -9,74 0,28 3,53 9,74 5,21 13,39 24,53 11,15 24,25 39,33 16,7 33,11 53,11 16,0 31,-3 43,-7 13,-4 23,-9 32,-14 8,-5 15,-10 21,-14 6,-5 10,-7 13,-7 2,0 3,1 4,1 1,1 2,2 3,4 0,2 1,5 1,8 1,3 1,8 1,13z"/>
  <path id="12" class="fil8" d="M3569 -2944c0,20 -4,38 -11,54 -7,16 -17,30 -30,41 -13,11 -28,19 -45,25 -17,6 -36,8 -55,8 -14,0 -27,-1 -39,-3 -12,-3 -23,-6 -32,-9 -9,-4 -17,-8 -23,-12 -6,-4 -11,-7 -13,-10 -3,-2 -5,-6 -6,-10 -1,-4 -2,-9 -2,-16 0,-5 1,-9 1,-13 1,-3 1,-5 2,-7 1,-3 2,-4 3,-5 2,0 3,-1 5,-1 3,0 7,2 12,6 6,4 13,8 21,12 9,5 19,9 31,13 12,4 26,6 42,6 12,0 23,-2 33,-5 10,-4 18,-8 26,-15 7,-6 12,-13 16,-22 4,-9 6,-19 6,-31 0,-12 -3,-23 -8,-31 -5,-9 -12,-17 -21,-24 -9,-6 -19,-12 -30,-18 -11,-5 -23,-11 -35,-17 -11,-5 -23,-12 -34,-19 -11,-7 -21,-15 -30,-24 -8,-10 -16,-21 -21,-33 -5,-13 -8,-28 -8,-46 0,-18 3,-34 9,-49 7,-14 15,-26 27,-35 11,-10 24,-17 40,-22 15,-6 32,-8 50,-8 9,0 18,1 27,2 10,2 18,4 27,7 8,3 15,6 21,10 7,3 11,6 13,8 2,2 3,4 4,5 1,1 1,3 2,5 0,2 0,4 1,7 0,3 0,6 0,10 0,4 0,8 0,11 -1,3 -1,6 -2,8 -1,2 -2,4 -3,5 -1,1 -2,1 -4,1 -2,0 -6,-1 -11,-4 -5,-4 -11,-7 -18,-11 -7,-4 -16,-8 -26,-11 -10,-3 -21,-5 -33,-5 -12,0 -22,2 -31,5 -8,3 -15,8 -21,13 -5,5 -9,12 -12,19 -3,8 -4,15 -4,24 0,12 2,22 8,31 5,9 12,16 21,23 9,7 19,13 30,19 12,5 23,11 35,17 12,6 23,12 35,19 11,6 21,15 30,24 9,9 16,20 21,33 6,13 9,27 9,45z"/>
  <path class="fil7" d="M-1018 -3226c98,0 181,62 212,150l40 0c6,0 10,4 10,10l0 131c0,5 -4,10 -10,10l-41 0c-31,86 -114,148 -211,148 -124,0 -224,-101 -224,-225 0,-36 8,-70 23,-101l-135 0c15,31 24,65 24,102 0,124 -100,224 -224,224 -98,0 -181,-62 -212,-149l-42 0c-5,0 -10,-4 -10,-10l0 -131c0,-5 5,-10 10,-10l42 0c31,-87 114,-149 212,-149 67,0 127,30 168,76l198 0 0 2c41,-48 102,-78 170,-78zm-536 44c99,0 179,81 179,180 0,100 -80,180 -179,180 -100,0 -180,-80 -180,-180 0,-99 80,-180 180,-180zm536 0c99,0 179,81 179,180 0,100 -80,180 -179,180 -99,0 -179,-80 -179,-180 0,-99 80,-180 179,-180z"/>
 </g>
</svg>
