<?xml version="1.0" encoding="UTF-8"?>
<!DOCTYPE svg PUBLIC "-//W3C//DTD SVG 1.1//EN" "http://www.w3.org/Graphics/SVG/1.1/DTD/svg11.dtd">
<!-- Creator: CorelDRAW Home & Student X8 -->
<svg xmlns="http://www.w3.org/2000/svg" xml:space="preserve" width="400px" height="61px" version="1.1" style="shape-rendering:geometricPrecision; text-rendering:geometricPrecision; image-rendering:optimizeQuality; fill-rule:evenodd; clip-rule:evenodd"
viewBox="0 0 352 54"
 xmlns:xlink="http://www.w3.org/1999/xlink">
 <defs>
  <style type="text/css">
   <![CDATA[
    .fil0 {fill:#7C008C}
    .fil1 {fill:#7C008C;fill-rule:nonzero}
   ]]>
  </style>
 </defs>
 <g id="Layer_x0020_4">
  <metadata id="CorelCorpID_0Corel-Layer"/>
  <path class="fil0" d="M13 44l0 2c0,0 0,0 0,0 1,5 10,8 22,8 11,0 21,-3 22,-8 0,0 0,0 0,0l0 -2c-2,0 -3,0 -5,0 -3,0 -5,0 -8,-2 -3,1 -6,1 -9,1 -4,0 -7,0 -10,-1 -2,2 -5,2 -8,2 -1,0 -3,0 -4,0zm44 -36c-1,-4 -9,-8 -22,-8 -14,0 -21,4 -22,8 0,0 0,0 0,0l0 1 0 1c0,1 1,2 2,2 1,0 2,0 2,0 4,0 7,1 9,3 3,1 6,1 9,1 2,0 5,0 7,-1 3,-2 7,-3 10,-3 1,0 2,0 2,0 1,0 2,-1 3,-2l0 -1 0 -1c0,0 0,0 0,0zm-44 11l0 1 0 1 0 0 0 2c2,2 7,4 14,4 0,-5 -4,-9 -10,-9 -1,0 -3,0 -4,1zm20 9c0,0 0,0 0,0 1,0 1,0 2,0 0,0 0,0 1,0l0 0c0,-2 0,-3 1,-5l-5 0c1,2 1,3 1,5zm9 -1c7,0 13,-2 15,-4l0 -2 0 0 0 -1 0 -1c-2,-1 -3,-1 -5,-1 -5,0 -10,4 -10,9zm-6 4c0,0 -1,0 -1,0 -1,0 -1,0 -2,0 -1,3 -2,6 -5,9 2,0 4,0 7,0 2,0 4,0 6,0 -2,-3 -4,-6 -5,-9zm-9 -1c-4,0 -7,-1 -10,-2 -2,0 -3,-1 -4,-2l0 7 0 0 0 0 0 2c1,1 3,2 6,3 4,-1 7,-4 8,-8zm23 8c3,-1 6,-2 7,-3l0 -2 0 0 0 0 0 -7c-1,1 -3,2 -5,2 -2,1 -6,2 -10,2 1,4 4,7 8,8z"/>
  <path class="fil1" d="M101 32c0,1 0,3 0,4 -1,1 -1,2 -2,2 -1,1 -2,2 -3,2 -1,0 -2,1 -4,1 -1,0 -2,-1 -2,-1 -1,0 -2,0 -2,0 -1,-1 -2,-1 -2,-1 0,0 -1,-1 -1,-1 0,0 0,0 0,0 0,-1 0,-1 0,-1 0,-1 0,-1 0,-1 0,0 0,-1 0,-1 0,0 0,0 0,0 0,0 0,0 0,0 1,0 1,0 1,0 1,0 1,1 2,1 0,0 1,1 2,1 0,0 1,0 2,0 1,0 2,0 3,0 0,0 1,-1 1,-1 1,0 1,-1 1,-1 1,-1 1,-2 1,-2 0,-1 -1,-2 -1,-3 0,0 -1,-1 -1,-1 -1,0 -1,-1 -2,-1 -1,-1 -2,-1 -2,-1 -1,-1 -2,-1 -3,-2 0,0 -1,-1 -2,-1 0,-1 -1,-2 -1,-2 0,-1 -1,-2 -1,-3 0,-2 1,-3 1,-4 0,0 1,-1 2,-2 1,-1 1,-1 2,-1 1,-1 2,-1 4,-1 0,0 1,0 1,0 1,0 2,1 2,1 1,0 1,0 2,0 0,1 0,1 0,1 1,0 1,0 1,0 0,0 0,0 0,1 0,0 0,0 0,0 0,0 0,0 0,1 0,0 0,0 0,0 0,1 0,1 0,1 0,0 0,0 0,0 0,0 -1,0 -1,0 0,0 0,0 0,0 -1,0 -1,0 -2,-1 0,0 -1,0 -1,0 -1,-1 -2,-1 -2,-1 -1,0 -2,0 -2,1 -1,0 -1,0 -2,0 0,1 0,1 -1,2 0,0 0,1 0,1 0,1 0,2 1,2 0,1 0,1 1,2 1,0 1,1 2,1 1,0 1,1 2,1 1,1 2,1 3,1 0,1 1,1 2,2 0,1 1,1 1,2 0,1 0,2 0,3z"/>
  <path id="1" class="fil1" d="M130 43c0,0 0,0 0,0 0,1 0,1 0,1 0,0 0,0 0,0 0,0 0,0 -1,0 0,0 0,0 -1,0 0,0 -1,-1 -2,-1 -1,-1 -2,-1 -3,-2 -1,0 -1,-1 -2,-2 -1,0 -2,1 -3,1 -1,0 -2,1 -4,1 -2,0 -3,-1 -5,-1 -1,-1 -3,-2 -4,-3 0,-1 -1,-3 -2,-5 0,-2 0,-4 0,-6 0,-2 0,-4 0,-6 1,-2 2,-4 3,-5 1,-1 2,-2 4,-3 1,0 3,-1 5,-1 2,0 4,0 5,1 2,1 3,2 4,3 1,1 2,3 2,4 1,2 1,4 1,6 0,2 0,3 0,4 0,1 -1,2 -1,3 0,1 -1,2 -1,3 -1,0 -1,1 -2,2 1,1 2,1 3,2 1,0 1,1 2,1 1,0 1,0 1,1 0,0 1,0 1,0 0,0 0,0 0,1 0,0 0,0 0,1zm-7 -17c0,-2 0,-3 0,-5 -1,-1 -1,-2 -2,-3 0,-1 -1,-2 -2,-3 -1,0 -3,-1 -4,-1 -2,0 -3,1 -4,1 -1,1 -2,2 -3,3 0,1 -1,2 -1,3 0,2 -1,3 -1,5 0,1 1,3 1,4 0,2 1,3 1,4 1,1 2,2 3,2 1,1 2,1 4,1 1,0 3,0 4,-1 1,0 2,-1 2,-2 1,-1 1,-2 2,-4 0,-1 0,-3 0,-4z"/>
  <path id="2" class="fil1" d="M145 38c0,1 0,1 0,1 0,0 0,1 -1,1 0,0 0,0 0,0 0,0 0,0 0,0l-12 0c0,0 -1,0 -1,0 0,0 0,-1 0,-1l0 -27c0,0 0,0 0,0 0,0 0,0 0,0 0,0 0,0 1,-1 0,0 0,0 0,0 1,0 1,0 1,0 0,1 1,1 1,1 0,0 0,0 0,0 0,0 0,0 0,0l0 25 10 0c0,0 0,0 0,0 0,0 0,0 0,0 1,0 1,0 1,1 0,0 0,0 0,0z"/>
  <path id="3" class="fil1" d="M170 39c0,0 0,1 -1,1 0,0 0,0 0,0 0,0 0,0 -1,0 0,0 0,0 -1,0 0,0 -1,0 -1,0 0,0 0,0 -1,0 0,0 0,0 0,0 0,0 0,-1 0,-1l-6 -21 0 0 -5 21c0,0 0,1 0,1 -1,0 -1,0 -1,0 0,0 0,0 -1,0 0,0 0,0 -1,0 0,0 -1,0 -1,0 0,0 0,0 -1,0 0,0 0,0 0,0 0,0 0,-1 0,-1l-7 -26c-1,0 -1,-1 -1,-1 0,0 0,0 1,0 0,0 0,0 0,-1 0,0 1,0 1,0 1,0 1,0 1,0 0,0 1,1 1,1 0,0 0,0 0,0 0,0 0,0 0,0l6 24 0 0 6 -24c0,0 0,0 0,0 0,0 0,0 1,0 0,0 0,0 0,-1 0,0 1,0 1,0 1,0 1,0 1,0 0,1 1,1 1,1 0,0 0,0 0,0 0,0 0,0 0,0l6 24 0 0 6 -24c0,0 0,0 0,0 1,0 1,0 1,0 0,0 0,0 0,-1 1,0 1,0 1,0 1,0 1,0 1,0 1,1 1,1 1,1 0,0 0,0 0,0 0,0 0,1 0,1l-7 26z"/>
  <path id="4" class="fil1" d="M198 39c0,0 0,0 0,1 0,0 0,0 0,0 0,0 0,0 -1,0 0,0 0,0 -1,0 0,0 -1,0 -1,0 0,0 0,0 0,0 -1,0 -1,0 -1,0 0,0 0,0 0,0l-2 -7 -11 0 -3 6c0,1 0,1 0,1 0,0 0,0 0,0 0,0 0,0 -1,0 0,0 0,0 -1,0 0,0 0,0 -1,0 0,0 0,0 0,0 0,0 0,0 0,0 0,-1 0,-1 0,-1l9 -27c0,0 0,0 0,0 0,0 0,0 1,0 0,0 0,-1 0,-1 0,0 1,0 1,0 1,0 1,0 1,0 1,0 1,1 1,1 0,0 0,0 0,0 1,0 1,0 1,0l9 27zm-12 -24l0 0 -5 15 10 0 -5 -15z"/>
  <path id="5" class="fil1" d="M214 13c0,0 0,1 0,1 -1,0 -1,0 -1,0 0,1 0,1 0,1 0,0 0,0 0,0l-8 0 0 25c0,0 0,0 0,0 0,0 0,0 0,0 0,0 0,0 -1,0 0,0 0,0 -1,0 0,0 0,0 0,0 -1,0 -1,0 -1,0 0,0 0,0 0,0 0,0 0,0 0,0l0 -25 -8 0c0,0 0,0 0,0 0,0 0,0 -1,-1 0,0 0,0 0,0 0,0 0,-1 0,-1 0,0 0,0 0,-1 0,0 0,0 0,0 1,0 1,0 1,0 0,0 0,0 0,0l19 0c0,0 0,0 0,0 0,0 0,0 0,0 0,0 0,0 1,0 0,1 0,1 0,1z"/>
  <path id="6" class="fil1" d="M232 36c0,0 0,1 0,1 0,0 0,0 0,0 0,0 0,0 0,1 0,0 0,0 0,0 0,0 -1,0 -1,1 -1,0 -1,0 -2,0 0,1 -1,1 -2,1 -1,0 -2,0 -3,0 -2,0 -3,0 -5,0 -1,-1 -2,-2 -3,-3 -1,-1 -2,-3 -3,-5 0,-1 0,-3 0,-6 0,-2 0,-4 0,-6 1,-2 2,-4 3,-5 1,-1 2,-2 4,-3 1,0 3,-1 5,-1 0,0 1,0 2,0 1,1 1,1 2,1 0,0 1,1 2,1 0,0 0,0 1,1 0,0 0,0 0,0 0,0 0,0 0,0 0,1 0,1 0,1 0,0 0,0 0,1 0,0 0,0 0,0 0,1 0,1 0,1 0,0 0,0 0,0 0,0 0,0 0,0 -1,0 -1,0 -1,0 -1,0 -1,-1 -2,-1 0,0 -1,-1 -2,-1 0,0 -1,0 -3,0 -1,0 -2,0 -3,0 -1,1 -2,2 -2,3 -1,0 -2,2 -2,3 0,2 -1,3 -1,5 0,2 1,3 1,5 0,1 1,2 2,3 0,1 1,2 2,2 1,1 2,1 4,1 1,0 2,0 2,0 1,-1 2,-1 2,-1 1,-1 1,-1 2,-1 0,0 1,-1 1,-1 0,0 0,0 0,0 0,1 0,1 0,1 0,0 0,0 0,0 0,0 0,1 0,1z"/>
  <path id="7" class="fil1" d="M254 40c0,0 0,0 0,0 0,0 0,0 0,0 0,0 -1,0 -1,0 0,0 0,0 -1,0 0,0 0,0 -1,0 0,0 0,0 0,0 0,0 0,0 0,0 0,0 0,0 0,0l0 -13 -13 0 0 13c0,0 0,0 0,0 0,0 0,0 0,0 0,0 0,0 -1,0 0,0 0,0 -1,0 0,0 0,0 0,0 -1,0 -1,0 -1,0 0,0 0,0 0,0 0,0 0,0 0,0l0 -28c0,0 0,0 0,0 0,0 0,0 0,0 0,0 0,0 1,-1 0,0 0,0 0,0 1,0 1,0 1,0 1,1 1,1 1,1 0,0 0,0 0,0 0,0 0,0 0,0l0 12 13 0 0 -12c0,0 0,0 0,0 0,0 0,0 0,0 0,0 0,0 0,-1 1,0 1,0 1,0 1,0 1,0 1,0 0,1 1,1 1,1 0,0 0,0 0,0 0,0 0,0 0,0l0 28z"/>
  <path id="8" class="fil1" d="M263 38c0,1 0,1 -1,2 0,0 0,0 -1,0 -1,0 -2,0 -2,0 0,-1 -1,-1 -1,-2 0,-1 1,-2 1,-2 0,-1 1,-1 2,-1 1,0 1,0 2,1 0,0 0,1 0,2z"/>
  <path id="9" class="fil1" d="M288 25c0,3 0,5 -1,7 0,2 -1,3 -2,4 -2,2 -3,3 -5,3 -1,1 -3,1 -6,1l-5 0c-1,0 -1,0 -1,0 -1,0 -1,-1 -1,-1l0 -26c0,0 0,-1 1,-1 0,0 0,0 1,0l6 0c2,0 4,0 6,1 1,0 3,1 4,2 1,1 2,3 2,5 1,1 1,3 1,5zm-4 1c0,-2 0,-3 0,-5 -1,-1 -1,-2 -2,-3 -1,-1 -2,-2 -3,-2 -1,-1 -3,-1 -4,-1l-4 0 0 22 4 0c1,0 3,0 4,-1 1,0 2,-1 3,-2 1,-1 1,-2 2,-3 0,-2 0,-3 0,-5z"/>
  <path id="10" class="fil1" d="M314 26c0,2 0,4 -1,6 0,2 -1,3 -2,4 -1,2 -2,3 -4,3 -2,1 -3,2 -5,2 -2,0 -4,-1 -6,-1 -1,-1 -2,-2 -3,-3 -1,-1 -2,-3 -3,-5 0,-2 0,-4 0,-6 0,-2 0,-4 1,-6 0,-2 1,-4 2,-5 1,-1 2,-2 4,-3 1,0 3,-1 5,-1 2,0 4,0 5,1 2,1 3,2 4,3 1,1 2,3 2,4 1,2 1,4 1,7zm-4 0c0,-2 0,-3 0,-5 -1,-1 -1,-2 -2,-3 0,-1 -1,-2 -2,-3 -1,0 -3,-1 -4,-1 -2,0 -3,1 -4,1 -1,1 -2,2 -3,3 0,1 -1,2 -1,3 0,2 0,3 0,5 0,1 0,3 0,4 0,2 1,3 1,4 1,1 2,2 3,2 1,1 2,1 4,1 1,0 3,0 4,-1 1,0 2,-1 2,-2 1,-1 1,-2 2,-4 0,-1 0,-3 0,-4z"/>
  <path id="11" class="fil1" d="M335 36c0,0 0,1 0,1 0,0 0,0 0,0 0,0 0,0 0,1 0,0 0,0 0,0 0,0 -1,0 -1,1 0,0 -1,0 -2,0 0,1 -1,1 -2,1 -1,0 -2,0 -3,0 -2,0 -3,0 -5,0 -1,-1 -2,-2 -3,-3 -1,-1 -2,-3 -3,-5 0,-1 0,-3 0,-6 0,-2 0,-4 1,-6 0,-2 1,-4 2,-5 1,-1 2,-2 4,-3 1,0 3,-1 5,-1 0,0 1,0 2,0 1,1 1,1 2,1 1,0 1,1 2,1 0,0 0,0 1,1 0,0 0,0 0,0 0,0 0,0 0,0 0,1 0,1 0,1 0,0 0,0 0,1 0,0 0,0 0,0 0,1 0,1 0,1 0,0 0,0 0,0 0,0 0,0 0,0 -1,0 -1,0 -1,0 -1,0 -1,-1 -2,-1 0,0 -1,-1 -2,-1 0,0 -1,0 -2,0 -2,0 -3,0 -4,0 -1,1 -2,2 -2,3 -1,0 -2,2 -2,3 0,2 -1,3 -1,5 0,2 1,3 1,5 0,1 1,2 2,3 0,1 1,2 2,2 1,1 2,1 4,1 1,0 2,0 2,0 1,-1 2,-1 3,-1 0,-1 1,-1 1,-1 0,0 1,-1 1,-1 0,0 0,0 0,0 0,1 0,1 0,1 0,0 0,0 0,0 0,0 0,1 0,1z"/>
  <path id="12" class="fil1" d="M352 32c0,1 0,3 0,4 -1,1 -2,2 -2,2 -1,1 -2,2 -3,2 -1,0 -3,1 -4,1 -1,0 -2,-1 -2,-1 -1,0 -2,0 -3,0 0,-1 -1,-1 -1,-1 0,0 -1,-1 -1,-1 0,0 0,0 0,0 0,-1 0,-1 0,-1 0,-1 0,-1 0,-1 0,0 0,-1 0,-1 0,0 0,0 0,0 0,0 0,0 0,0 0,0 1,0 1,0 0,0 1,1 1,1 1,0 2,1 3,1 0,0 1,0 2,0 1,0 2,0 2,0 1,0 2,-1 2,-1 1,0 1,-1 1,-1 0,-1 1,-2 1,-2 0,-1 -1,-2 -1,-3 0,0 -1,-1 -1,-1 -1,0 -2,-1 -2,-1 -1,-1 -2,-1 -3,-1 0,-1 -1,-1 -2,-2 -1,0 -1,-1 -2,-1 0,-1 -1,-2 -1,-2 -1,-1 -1,-2 -1,-3 0,-2 1,-3 1,-4 0,0 1,-1 2,-2 0,-1 1,-1 2,-1 1,-1 2,-1 4,-1 0,0 1,0 1,0 1,0 2,1 2,1 1,0 1,0 1,0 1,1 1,1 1,1 0,0 1,0 1,0 0,0 0,0 0,1 0,0 0,0 0,0 0,0 0,0 0,1 0,0 0,0 0,0 0,1 0,1 0,1 0,0 0,0 -1,0 0,0 0,0 0,0 0,0 0,0 -1,0 0,0 0,0 -1,-1 0,0 -1,0 -1,0 -1,-1 -2,-1 -3,-1 0,0 -1,0 -2,1 0,0 -1,0 -1,0 0,1 -1,1 -1,2 0,0 0,1 0,1 0,1 0,2 0,2 1,1 1,1 2,2 0,0 1,1 2,1 1,0 1,1 2,1 1,1 2,1 2,1 1,1 2,1 2,2 1,1 1,1 2,2 0,1 0,2 0,3z"/>
  <path class="fil0" d="M52 14c7,0 12,4 14,9l3 0c0,0 0,1 0,1l0 9c0,0 0,0 0,0l-3 0c-2,6 -7,10 -14,10 -8,0 -14,-7 -14,-15 0,-2 0,-4 1,-6l-9 0c1,2 2,4 2,6 0,8 -7,15 -15,15 -6,0 -12,-4 -14,-10l-2 0c-1,0 -1,0 -1,0l0 -9c0,0 0,-1 1,-1l2 0c2,-5 8,-9 14,-9 5,0 9,2 11,5l13 0 0 0c3,-3 7,-5 11,-5zm-35 3c7,0 12,5 12,11 0,7 -5,12 -12,12 -6,0 -12,-5 -12,-12 0,-6 6,-11 12,-11zm35 0c7,0 12,5 12,11 0,7 -5,12 -12,12 -6,0 -11,-5 -11,-12 0,-6 5,-11 11,-11z"/>
 </g>
</svg>
